<?xml version="1.0" encoding="utf-8" standalone="no"?>
<!DOCTYPE svg PUBLIC "-//W3C//DTD SVG 1.1//EN"
  "http://www.w3.org/Graphics/SVG/1.1/DTD/svg11.dtd">
<svg xmlns:xlink="http://www.w3.org/1999/xlink" width="237.405pt" height="289.048516pt" viewBox="0 0 237.405 289.048516" xmlns="http://www.w3.org/2000/svg" version="1.1">
 <metadata>
  <rdf:RDF xmlns:dc="http://purl.org/dc/elements/1.1/" xmlns:cc="http://creativecommons.org/ns#" xmlns:rdf="http://www.w3.org/1999/02/22-rdf-syntax-ns#">
   <cc:Work>
    <dc:type rdf:resource="http://purl.org/dc/dcmitype/StillImage"/>
    <dc:date>2026-10-01T03:22:41.832282</dc:date>
    <dc:format>image/svg+xml</dc:format>
    <dc:creator>
     <cc:Agent>
      <dc:title>Matplotlib v3.11.2, https://matplotlib.org/</dc:title>
     </cc:Agent>
    </dc:creator>
   </cc:Work>
  </rdf:RDF>
 </metadata>
 <defs>
  <style type="text/css">*{stroke-linejoin: round; stroke-linecap: butt}</style>
 </defs>
 <g id="figure_1">
  <g id="patch_1">
   <path d="M 0 289.048516 
L 237.405 289.048516 
L 237.405 0 
L 0 0 
z
" style="fill: #ffffff"/>
  </g>
  <g id="axes_1">
   <g id="patch_2">
    <path d="M 37.731563 111.674284 
L 230.205 111.674284 
L 230.205 83.131563 
L 37.731563 83.131563 
z
" style="fill: #ffffff"/>
   </g>
   <g id="matplotlib.axis_1">
    <g id="xtick_1">
     <g id="line2d_1">
      <path d="M 46.480355 111.674284 
L 46.480355 83.131563 
" clip-path="url(#pc5a63b2239)" style="fill: none; stroke: #b0b0b0; stroke-opacity: 0.2; stroke-width: 0.8; stroke-linecap: square"/>
     </g>
     <g id="line2d_2">
      <defs>
       <path id="m9f6c7d2e10" d="M 0 0 
L 0 3.5 
" style="stroke: #000000; stroke-width: 0.8"/>
      </defs>
      <g>
       <use xlink:href="#m9f6c7d2e10" x="46.480355" y="111.674284" style="stroke: #000000; stroke-width: 0.8"/>
      </g>
     </g>
     <g id="text_1">
      <!-- 0.0 -->
      <g transform="translate(42.105355 123.527799) scale(0.07 -0.07)">
       <defs>
        <path id="TimesNewRomanPSMT-13" d="M 231 2094 
Q 231 2819 450 3342 
Q 669 3866 1031 4122 
Q 1313 4325 1613 4325 
Q 2100 4325 2488 3828 
Q 2972 3213 2972 2159 
Q 2972 1422 2759 906 
Q 2547 391 2217 158 
Q 1888 -75 1581 -75 
Q 975 -75 572 641 
Q 231 1244 231 2094 
z
M 844 2016 
Q 844 1141 1059 588 
Q 1238 122 1591 122 
Q 1759 122 1940 273 
Q 2122 425 2216 781 
Q 2359 1319 2359 2297 
Q 2359 3022 2209 3506 
Q 2097 3866 1919 4016 
Q 1791 4119 1609 4119 
Q 1397 4119 1231 3928 
Q 1006 3669 925 3112 
Q 844 2556 844 2016 
z
" transform="scale(0.015625)"/>
        <path id="TimesNewRomanPSMT-11" d="M 800 606 
Q 947 606 1047 504 
Q 1147 403 1147 259 
Q 1147 116 1045 14 
Q 944 -88 800 -88 
Q 656 -88 554 14 
Q 453 116 453 259 
Q 453 406 554 506 
Q 656 606 800 606 
z
" transform="scale(0.015625)"/>
       </defs>
       <use xlink:href="#TimesNewRomanPSMT-13"/>
       <use xlink:href="#TimesNewRomanPSMT-11" transform="translate(50 0)"/>
       <use xlink:href="#TimesNewRomanPSMT-13" transform="translate(75 0)"/>
      </g>
     </g>
    </g>
    <g id="xtick_2">
     <g id="line2d_3">
      <path d="M 69.810469 111.674284 
L 69.810469 83.131563 
" clip-path="url(#pc5a63b2239)" style="fill: none; stroke: #b0b0b0; stroke-opacity: 0.2; stroke-width: 0.8; stroke-linecap: square"/>
     </g>
     <g id="line2d_4">
      <g>
       <use xlink:href="#m9f6c7d2e10" x="69.810469" y="111.674284" style="stroke: #000000; stroke-width: 0.8"/>
      </g>
     </g>
     <g id="text_2">
      <!-- 0.2 -->
      <g transform="translate(65.435469 123.527799) scale(0.07 -0.07)">
       <defs>
        <path id="TimesNewRomanPSMT-15" d="M 2934 816 
L 2638 0 
L 138 0 
L 138 116 
Q 1241 1122 1691 1759 
Q 2141 2397 2141 2925 
Q 2141 3328 1894 3587 
Q 1647 3847 1303 3847 
Q 991 3847 742 3664 
Q 494 3481 375 3128 
L 259 3128 
Q 338 3706 661 4015 
Q 984 4325 1469 4325 
Q 1984 4325 2329 3994 
Q 2675 3663 2675 3213 
Q 2675 2891 2525 2569 
Q 2294 2063 1775 1497 
Q 997 647 803 472 
L 1909 472 
Q 2247 472 2383 497 
Q 2519 522 2628 598 
Q 2738 675 2819 816 
L 2934 816 
z
" transform="scale(0.015625)"/>
       </defs>
       <use xlink:href="#TimesNewRomanPSMT-13"/>
       <use xlink:href="#TimesNewRomanPSMT-11" transform="translate(50 0)"/>
       <use xlink:href="#TimesNewRomanPSMT-15" transform="translate(75 0)"/>
      </g>
     </g>
    </g>
    <g id="xtick_3">
     <g id="line2d_5">
      <path d="M 93.140582 111.674284 
L 93.140582 83.131563 
" clip-path="url(#pc5a63b2239)" style="fill: none; stroke: #b0b0b0; stroke-opacity: 0.2; stroke-width: 0.8; stroke-linecap: square"/>
     </g>
     <g id="line2d_6">
      <g>
       <use xlink:href="#m9f6c7d2e10" x="93.140582" y="111.674284" style="stroke: #000000; stroke-width: 0.8"/>
      </g>
     </g>
     <g id="text_3">
      <!-- 0.4 -->
      <g transform="translate(88.765582 123.527799) scale(0.07 -0.07)">
       <defs>
        <path id="TimesNewRomanPSMT-17" d="M 2978 1563 
L 2978 1119 
L 2409 1119 
L 2409 0 
L 1894 0 
L 1894 1119 
L 100 1119 
L 100 1519 
L 2066 4325 
L 2409 4325 
L 2409 1563 
L 2978 1563 
z
M 1894 1563 
L 1894 3666 
L 406 1563 
L 1894 1563 
z
" transform="scale(0.015625)"/>
       </defs>
       <use xlink:href="#TimesNewRomanPSMT-13"/>
       <use xlink:href="#TimesNewRomanPSMT-11" transform="translate(50 0)"/>
       <use xlink:href="#TimesNewRomanPSMT-17" transform="translate(75 0)"/>
      </g>
     </g>
    </g>
    <g id="xtick_4">
     <g id="line2d_7">
      <path d="M 116.470696 111.674284 
L 116.470696 83.131563 
" clip-path="url(#pc5a63b2239)" style="fill: none; stroke: #b0b0b0; stroke-opacity: 0.2; stroke-width: 0.8; stroke-linecap: square"/>
     </g>
     <g id="line2d_8">
      <g>
       <use xlink:href="#m9f6c7d2e10" x="116.470696" y="111.674284" style="stroke: #000000; stroke-width: 0.8"/>
      </g>
     </g>
     <g id="text_4">
      <!-- 0.6 -->
      <g transform="translate(112.095696 123.527799) scale(0.07 -0.07)">
       <defs>
        <path id="TimesNewRomanPSMT-19" d="M 2869 4325 
L 2869 4209 
Q 2456 4169 2195 4045 
Q 1934 3922 1679 3669 
Q 1425 3416 1258 3105 
Q 1091 2794 978 2366 
Q 1428 2675 1881 2675 
Q 2316 2675 2634 2325 
Q 2953 1975 2953 1425 
Q 2953 894 2631 456 
Q 2244 -75 1606 -75 
Q 1172 -75 869 213 
Q 275 772 275 1663 
Q 275 2231 503 2743 
Q 731 3256 1154 3653 
Q 1578 4050 1965 4187 
Q 2353 4325 2688 4325 
L 2869 4325 
z
M 925 2138 
Q 869 1716 869 1456 
Q 869 1156 980 804 
Q 1091 453 1309 247 
Q 1469 100 1697 100 
Q 1969 100 2183 356 
Q 2397 613 2397 1088 
Q 2397 1622 2184 2012 
Q 1972 2403 1581 2403 
Q 1463 2403 1327 2353 
Q 1191 2303 925 2138 
z
" transform="scale(0.015625)"/>
       </defs>
       <use xlink:href="#TimesNewRomanPSMT-13"/>
       <use xlink:href="#TimesNewRomanPSMT-11" transform="translate(50 0)"/>
       <use xlink:href="#TimesNewRomanPSMT-19" transform="translate(75 0)"/>
      </g>
     </g>
    </g>
    <g id="xtick_5">
     <g id="line2d_9">
      <path d="M 139.80081 111.674284 
L 139.80081 83.131563 
" clip-path="url(#pc5a63b2239)" style="fill: none; stroke: #b0b0b0; stroke-opacity: 0.2; stroke-width: 0.8; stroke-linecap: square"/>
     </g>
     <g id="line2d_10">
      <g>
       <use xlink:href="#m9f6c7d2e10" x="139.80081" y="111.674284" style="stroke: #000000; stroke-width: 0.8"/>
      </g>
     </g>
     <g id="text_5">
      <!-- 0.8 -->
      <g transform="translate(135.42581 123.527799) scale(0.07 -0.07)">
       <defs>
        <path id="TimesNewRomanPSMT-1b" d="M 1228 2134 
Q 725 2547 579 2797 
Q 434 3047 434 3316 
Q 434 3728 753 4026 
Q 1072 4325 1600 4325 
Q 2113 4325 2425 4047 
Q 2738 3769 2738 3413 
Q 2738 3175 2569 2928 
Q 2400 2681 1866 2347 
Q 2416 1922 2594 1678 
Q 2831 1359 2831 1006 
Q 2831 559 2490 242 
Q 2150 -75 1597 -75 
Q 994 -75 656 303 
Q 388 606 388 966 
Q 388 1247 577 1523 
Q 766 1800 1228 2134 
z
M 1719 2469 
Q 2094 2806 2194 3001 
Q 2294 3197 2294 3444 
Q 2294 3772 2109 3958 
Q 1925 4144 1606 4144 
Q 1288 4144 1088 3959 
Q 888 3775 888 3528 
Q 888 3366 970 3203 
Q 1053 3041 1206 2894 
L 1719 2469 
z
M 1375 2016 
Q 1116 1797 991 1539 
Q 866 1281 866 981 
Q 866 578 1086 336 
Q 1306 94 1647 94 
Q 1984 94 2187 284 
Q 2391 475 2391 747 
Q 2391 972 2272 1150 
Q 2050 1481 1375 2016 
z
" transform="scale(0.015625)"/>
       </defs>
       <use xlink:href="#TimesNewRomanPSMT-13"/>
       <use xlink:href="#TimesNewRomanPSMT-11" transform="translate(50 0)"/>
       <use xlink:href="#TimesNewRomanPSMT-1b" transform="translate(75 0)"/>
      </g>
     </g>
    </g>
    <g id="xtick_6">
     <g id="line2d_11">
      <path d="M 163.130923 111.674284 
L 163.130923 83.131563 
" clip-path="url(#pc5a63b2239)" style="fill: none; stroke: #b0b0b0; stroke-opacity: 0.2; stroke-width: 0.8; stroke-linecap: square"/>
     </g>
     <g id="line2d_12">
      <g>
       <use xlink:href="#m9f6c7d2e10" x="163.130923" y="111.674284" style="stroke: #000000; stroke-width: 0.8"/>
      </g>
     </g>
     <g id="text_6">
      <!-- 1.0 -->
      <g transform="translate(158.755923 123.527799) scale(0.07 -0.07)">
       <defs>
        <path id="TimesNewRomanPSMT-14" d="M 750 3822 
L 1781 4325 
L 1884 4325 
L 1884 747 
Q 1884 391 1914 303 
Q 1944 216 2037 169 
Q 2131 122 2419 116 
L 2419 0 
L 825 0 
L 825 116 
Q 1125 122 1212 167 
Q 1300 213 1334 289 
Q 1369 366 1369 747 
L 1369 3034 
Q 1369 3497 1338 3628 
Q 1316 3728 1258 3775 
Q 1200 3822 1119 3822 
Q 1003 3822 797 3725 
L 750 3822 
z
" transform="scale(0.015625)"/>
       </defs>
       <use xlink:href="#TimesNewRomanPSMT-14"/>
       <use xlink:href="#TimesNewRomanPSMT-11" transform="translate(50 0)"/>
       <use xlink:href="#TimesNewRomanPSMT-13" transform="translate(75 0)"/>
      </g>
     </g>
    </g>
    <g id="xtick_7">
     <g id="line2d_13">
      <path d="M 186.461037 111.674284 
L 186.461037 83.131563 
" clip-path="url(#pc5a63b2239)" style="fill: none; stroke: #b0b0b0; stroke-opacity: 0.2; stroke-width: 0.8; stroke-linecap: square"/>
     </g>
     <g id="line2d_14">
      <g>
       <use xlink:href="#m9f6c7d2e10" x="186.461037" y="111.674284" style="stroke: #000000; stroke-width: 0.8"/>
      </g>
     </g>
     <g id="text_7">
      <!-- 1.2 -->
      <g transform="translate(182.086037 123.527799) scale(0.07 -0.07)">
       <use xlink:href="#TimesNewRomanPSMT-14"/>
       <use xlink:href="#TimesNewRomanPSMT-11" transform="translate(50 0)"/>
       <use xlink:href="#TimesNewRomanPSMT-15" transform="translate(75 0)"/>
      </g>
     </g>
    </g>
    <g id="xtick_8">
     <g id="line2d_15">
      <path d="M 209.791151 111.674284 
L 209.791151 83.131563 
" clip-path="url(#pc5a63b2239)" style="fill: none; stroke: #b0b0b0; stroke-opacity: 0.2; stroke-width: 0.8; stroke-linecap: square"/>
     </g>
     <g id="line2d_16">
      <g>
       <use xlink:href="#m9f6c7d2e10" x="209.791151" y="111.674284" style="stroke: #000000; stroke-width: 0.8"/>
      </g>
     </g>
     <g id="text_8">
      <!-- 1.4 -->
      <g transform="translate(205.416151 123.527799) scale(0.07 -0.07)">
       <use xlink:href="#TimesNewRomanPSMT-14"/>
       <use xlink:href="#TimesNewRomanPSMT-11" transform="translate(50 0)"/>
       <use xlink:href="#TimesNewRomanPSMT-17" transform="translate(75 0)"/>
      </g>
     </g>
    </g>
    <g id="text_9">
     <!-- 1e3 -->
     <g transform="translate(220.097656 132.892057) scale(0.07 -0.07)">
      <defs>
       <path id="TimesNewRomanPSMT-48" d="M 681 1784 
Q 678 1147 991 784 
Q 1303 422 1725 422 
Q 2006 422 2214 576 
Q 2422 731 2563 1106 
L 2659 1044 
Q 2594 616 2278 264 
Q 1963 -88 1488 -88 
Q 972 -88 605 314 
Q 238 716 238 1394 
Q 238 2128 614 2539 
Q 991 2950 1559 2950 
Q 2041 2950 2350 2633 
Q 2659 2316 2659 1784 
L 681 1784 
z
M 681 1966 
L 2006 1966 
Q 1991 2241 1941 2353 
Q 1863 2528 1708 2628 
Q 1553 2728 1384 2728 
Q 1125 2728 920 2526 
Q 716 2325 681 1966 
z
" transform="scale(0.015625)"/>
       <path id="TimesNewRomanPSMT-16" d="M 325 3431 
Q 506 3859 782 4092 
Q 1059 4325 1472 4325 
Q 1981 4325 2253 3994 
Q 2459 3747 2459 3466 
Q 2459 3003 1878 2509 
Q 2269 2356 2469 2072 
Q 2669 1788 2669 1403 
Q 2669 853 2319 450 
Q 1863 -75 997 -75 
Q 569 -75 414 31 
Q 259 138 259 259 
Q 259 350 332 419 
Q 406 488 509 488 
Q 588 488 669 463 
Q 722 447 909 348 
Q 1097 250 1169 231 
Q 1284 197 1416 197 
Q 1734 197 1970 444 
Q 2206 691 2206 1028 
Q 2206 1275 2097 1509 
Q 2016 1684 1919 1775 
Q 1784 1900 1550 2001 
Q 1316 2103 1072 2103 
L 972 2103 
L 972 2197 
Q 1219 2228 1467 2375 
Q 1716 2522 1828 2728 
Q 1941 2934 1941 3181 
Q 1941 3503 1739 3701 
Q 1538 3900 1238 3900 
Q 753 3900 428 3381 
L 325 3431 
z
" transform="scale(0.015625)"/>
      </defs>
      <use xlink:href="#TimesNewRomanPSMT-14"/>
      <use xlink:href="#TimesNewRomanPSMT-48" transform="translate(50 0)"/>
      <use xlink:href="#TimesNewRomanPSMT-16" transform="translate(94.390625 0)"/>
     </g>
    </g>
   </g>
   <g id="matplotlib.axis_2">
    <g id="ytick_1">
     <g id="line2d_17">
      <path d="M 37.731563 104.969413 
L 230.205 104.969413 
" clip-path="url(#pc5a63b2239)" style="fill: none; stroke: #b0b0b0; stroke-opacity: 0.2; stroke-width: 0.8; stroke-linecap: square"/>
     </g>
     <g id="line2d_18">
      <defs>
       <path id="me4b5cc51e1" d="M 0 0 
L -3.5 0 
" style="stroke: #000000; stroke-width: 0.8"/>
      </defs>
      <g>
       <use xlink:href="#me4b5cc51e1" x="37.731563" y="104.969413" style="stroke: #000000; stroke-width: 0.8"/>
      </g>
     </g>
     <g id="text_10">
      <!-- 17.5 -->
      <g transform="translate(18.481563 107.396171) scale(0.07 -0.07)">
       <defs>
        <path id="TimesNewRomanPSMT-1a" d="M 644 4238 
L 2916 4238 
L 2916 4119 
L 1503 -88 
L 1153 -88 
L 2419 3728 
L 1253 3728 
Q 900 3728 750 3644 
Q 488 3500 328 3200 
L 238 3234 
L 644 4238 
z
" transform="scale(0.015625)"/>
        <path id="TimesNewRomanPSMT-18" d="M 2778 4238 
L 2534 3706 
L 1259 3706 
L 981 3138 
Q 1809 3016 2294 2522 
Q 2709 2097 2709 1522 
Q 2709 1188 2573 903 
Q 2438 619 2231 419 
Q 2025 219 1772 97 
Q 1413 -75 1034 -75 
Q 653 -75 479 54 
Q 306 184 306 341 
Q 306 428 378 495 
Q 450 563 559 563 
Q 641 563 702 538 
Q 763 513 909 409 
Q 1144 247 1384 247 
Q 1750 247 2026 523 
Q 2303 800 2303 1197 
Q 2303 1581 2056 1914 
Q 1809 2247 1375 2428 
Q 1034 2569 447 2591 
L 1259 4238 
L 2778 4238 
z
" transform="scale(0.015625)"/>
       </defs>
       <use xlink:href="#TimesNewRomanPSMT-14"/>
       <use xlink:href="#TimesNewRomanPSMT-1a" transform="translate(50 0)"/>
       <use xlink:href="#TimesNewRomanPSMT-11" transform="translate(100 0)"/>
       <use xlink:href="#TimesNewRomanPSMT-18" transform="translate(125 0)"/>
      </g>
     </g>
    </g>
    <g id="ytick_2">
     <g id="line2d_19">
      <path d="M 37.731563 95.956956 
L 230.205 95.956956 
" clip-path="url(#pc5a63b2239)" style="fill: none; stroke: #b0b0b0; stroke-opacity: 0.2; stroke-width: 0.8; stroke-linecap: square"/>
     </g>
     <g id="line2d_20">
      <g>
       <use xlink:href="#me4b5cc51e1" x="37.731563" y="95.956956" style="stroke: #000000; stroke-width: 0.8"/>
      </g>
     </g>
     <g id="text_11">
      <!-- 20.0 -->
      <g transform="translate(18.481563 98.383714) scale(0.07 -0.07)">
       <use xlink:href="#TimesNewRomanPSMT-15"/>
       <use xlink:href="#TimesNewRomanPSMT-13" transform="translate(50 0)"/>
       <use xlink:href="#TimesNewRomanPSMT-11" transform="translate(100 0)"/>
       <use xlink:href="#TimesNewRomanPSMT-13" transform="translate(125 0)"/>
      </g>
     </g>
    </g>
    <g id="ytick_3">
     <g id="line2d_21">
      <path d="M 37.731563 86.944499 
L 230.205 86.944499 
" clip-path="url(#pc5a63b2239)" style="fill: none; stroke: #b0b0b0; stroke-opacity: 0.2; stroke-width: 0.8; stroke-linecap: square"/>
     </g>
     <g id="line2d_22">
      <g>
       <use xlink:href="#me4b5cc51e1" x="37.731563" y="86.944499" style="stroke: #000000; stroke-width: 0.8"/>
      </g>
     </g>
     <g id="text_12">
      <!-- 22.5 -->
      <g transform="translate(18.481563 89.371256) scale(0.07 -0.07)">
       <use xlink:href="#TimesNewRomanPSMT-15"/>
       <use xlink:href="#TimesNewRomanPSMT-15" transform="translate(50 0)"/>
       <use xlink:href="#TimesNewRomanPSMT-11" transform="translate(100 0)"/>
       <use xlink:href="#TimesNewRomanPSMT-18" transform="translate(125 0)"/>
      </g>
     </g>
    </g>
    <g id="text_13">
     <!-- PSNR (dB) -->
     <g transform="translate(12.755 115.740423) rotate(-90) scale(0.08 -0.08)">
      <defs>
       <path id="TimesNewRomanPSMT-33" d="M 1313 1984 
L 1313 750 
Q 1313 350 1400 253 
Q 1519 116 1759 116 
L 1922 116 
L 1922 0 
L 106 0 
L 106 116 
L 266 116 
Q 534 116 650 291 
Q 713 388 713 750 
L 713 3488 
Q 713 3888 628 3984 
Q 506 4122 266 4122 
L 106 4122 
L 106 4238 
L 1659 4238 
Q 2228 4238 2556 4120 
Q 2884 4003 3109 3725 
Q 3334 3447 3334 3066 
Q 3334 2547 2992 2222 
Q 2650 1897 2025 1897 
Q 1872 1897 1694 1919 
Q 1516 1941 1313 1984 
z
M 1313 2163 
Q 1478 2131 1606 2115 
Q 1734 2100 1825 2100 
Q 2150 2100 2386 2351 
Q 2622 2603 2622 3003 
Q 2622 3278 2509 3514 
Q 2397 3750 2190 3867 
Q 1984 3984 1722 3984 
Q 1563 3984 1313 3925 
L 1313 2163 
z
" transform="scale(0.015625)"/>
       <path id="TimesNewRomanPSMT-36" d="M 2934 4334 
L 2934 2869 
L 2819 2869 
Q 2763 3291 2617 3541 
Q 2472 3791 2203 3937 
Q 1934 4084 1647 4084 
Q 1322 4084 1109 3886 
Q 897 3688 897 3434 
Q 897 3241 1031 3081 
Q 1225 2847 1953 2456 
Q 2547 2138 2764 1967 
Q 2981 1797 3098 1565 
Q 3216 1334 3216 1081 
Q 3216 600 2842 251 
Q 2469 -97 1881 -97 
Q 1697 -97 1534 -69 
Q 1438 -53 1133 45 
Q 828 144 747 144 
Q 669 144 623 97 
Q 578 50 556 -97 
L 441 -97 
L 441 1356 
L 556 1356 
Q 638 900 775 673 
Q 913 447 1195 297 
Q 1478 147 1816 147 
Q 2206 147 2432 353 
Q 2659 559 2659 841 
Q 2659 997 2573 1156 
Q 2488 1316 2306 1453 
Q 2184 1547 1640 1851 
Q 1097 2156 867 2337 
Q 638 2519 519 2737 
Q 400 2956 400 3219 
Q 400 3675 750 4004 
Q 1100 4334 1641 4334 
Q 1978 4334 2356 4169 
Q 2531 4091 2603 4091 
Q 2684 4091 2736 4139 
Q 2788 4188 2819 4334 
L 2934 4334 
z
" transform="scale(0.015625)"/>
       <path id="TimesNewRomanPSMT-31" d="M -84 4238 
L 1066 4238 
L 3656 1059 
L 3656 3503 
Q 3656 3894 3569 3991 
Q 3453 4122 3203 4122 
L 3056 4122 
L 3056 4238 
L 4531 4238 
L 4531 4122 
L 4381 4122 
Q 4113 4122 4000 3959 
Q 3931 3859 3931 3503 
L 3931 -69 
L 3819 -69 
L 1025 3344 
L 1025 734 
Q 1025 344 1109 247 
Q 1228 116 1475 116 
L 1625 116 
L 1625 0 
L 150 0 
L 150 116 
L 297 116 
Q 569 116 681 278 
Q 750 378 750 734 
L 750 3681 
Q 566 3897 470 3965 
Q 375 4034 191 4094 
Q 100 4122 -84 4122 
L -84 4238 
z
" transform="scale(0.015625)"/>
       <path id="TimesNewRomanPSMT-35" d="M 4325 0 
L 3194 0 
L 1759 1981 
Q 1600 1975 1500 1975 
Q 1459 1975 1412 1976 
Q 1366 1978 1316 1981 
L 1316 750 
Q 1316 350 1403 253 
Q 1522 116 1759 116 
L 1925 116 
L 1925 0 
L 109 0 
L 109 116 
L 269 116 
Q 538 116 653 291 
Q 719 388 719 750 
L 719 3488 
Q 719 3888 631 3984 
Q 509 4122 269 4122 
L 109 4122 
L 109 4238 
L 1653 4238 
Q 2328 4238 2648 4139 
Q 2969 4041 3192 3777 
Q 3416 3513 3416 3147 
Q 3416 2756 3161 2468 
Q 2906 2181 2372 2063 
L 3247 847 
Q 3547 428 3762 290 
Q 3978 153 4325 116 
L 4325 0 
z
M 1316 2178 
Q 1375 2178 1419 2176 
Q 1463 2175 1491 2175 
Q 2097 2175 2405 2437 
Q 2713 2700 2713 3106 
Q 2713 3503 2464 3751 
Q 2216 4000 1806 4000 
Q 1625 4000 1316 3941 
L 1316 2178 
z
" transform="scale(0.015625)"/>
       <path id="TimesNewRomanPSMT-3" transform="scale(0.015625)"/>
       <path id="TimesNewRomanPSMT-b" d="M 1988 -1253 
L 1988 -1369 
Q 1516 -1131 1200 -813 
Q 750 -359 506 256 
Q 263 872 263 1534 
Q 263 2503 741 3301 
Q 1219 4100 1988 4444 
L 1988 4313 
Q 1603 4100 1356 3731 
Q 1109 3363 987 2797 
Q 866 2231 866 1616 
Q 866 947 969 400 
Q 1050 -31 1165 -292 
Q 1281 -553 1476 -793 
Q 1672 -1034 1988 -1253 
z
" transform="scale(0.015625)"/>
       <path id="TimesNewRomanPSMT-47" d="M 2222 322 
Q 2013 103 1813 7 
Q 1613 -88 1381 -88 
Q 913 -88 563 304 
Q 213 697 213 1313 
Q 213 1928 600 2439 
Q 988 2950 1597 2950 
Q 1975 2950 2222 2709 
L 2222 3238 
Q 2222 3728 2198 3840 
Q 2175 3953 2125 3993 
Q 2075 4034 2000 4034 
Q 1919 4034 1784 3984 
L 1744 4094 
L 2597 4444 
L 2738 4444 
L 2738 1134 
Q 2738 631 2761 520 
Q 2784 409 2836 365 
Q 2888 322 2956 322 
Q 3041 322 3181 375 
L 3216 266 
L 2366 -88 
L 2222 -88 
L 2222 322 
z
M 2222 541 
L 2222 2016 
Q 2203 2228 2109 2403 
Q 2016 2578 1861 2667 
Q 1706 2756 1559 2756 
Q 1284 2756 1069 2509 
Q 784 2184 784 1559 
Q 784 928 1059 592 
Q 1334 256 1672 256 
Q 1956 256 2222 541 
z
" transform="scale(0.015625)"/>
       <path id="TimesNewRomanPSMT-25" d="M 2956 2163 
Q 3397 2069 3616 1863 
Q 3919 1575 3919 1159 
Q 3919 844 3719 555 
Q 3519 266 3170 133 
Q 2822 0 2106 0 
L 106 0 
L 106 116 
L 266 116 
Q 531 116 647 284 
Q 719 394 719 750 
L 719 3488 
Q 719 3881 628 3984 
Q 506 4122 266 4122 
L 106 4122 
L 106 4238 
L 1938 4238 
Q 2450 4238 2759 4163 
Q 3228 4050 3475 3764 
Q 3722 3478 3722 3106 
Q 3722 2788 3528 2536 
Q 3334 2284 2956 2163 
z
M 1319 2331 
Q 1434 2309 1582 2298 
Q 1731 2288 1909 2288 
Q 2366 2288 2595 2386 
Q 2825 2484 2947 2687 
Q 3069 2891 3069 3131 
Q 3069 3503 2766 3765 
Q 2463 4028 1881 4028 
Q 1569 4028 1319 3959 
L 1319 2331 
z
M 1319 306 
Q 1681 222 2034 222 
Q 2600 222 2897 476 
Q 3194 731 3194 1106 
Q 3194 1353 3059 1581 
Q 2925 1809 2622 1940 
Q 2319 2072 1872 2072 
Q 1678 2072 1540 2065 
Q 1403 2059 1319 2044 
L 1319 306 
z
" transform="scale(0.015625)"/>
       <path id="TimesNewRomanPSMT-c" d="M 144 4313 
L 144 4444 
Q 619 4209 934 3891 
Q 1381 3434 1625 2820 
Q 1869 2206 1869 1541 
Q 1869 572 1392 -226 
Q 916 -1025 144 -1369 
L 144 -1253 
Q 528 -1038 776 -670 
Q 1025 -303 1145 264 
Q 1266 831 1266 1447 
Q 1266 2113 1163 2663 
Q 1084 3094 967 3353 
Q 850 3613 656 3853 
Q 463 4094 144 4313 
z
" transform="scale(0.015625)"/>
      </defs>
      <use xlink:href="#TimesNewRomanPSMT-33"/>
      <use xlink:href="#TimesNewRomanPSMT-36" transform="translate(55.609375 0)"/>
      <use xlink:href="#TimesNewRomanPSMT-31" transform="translate(111.21875 0)"/>
      <use xlink:href="#TimesNewRomanPSMT-35" transform="translate(183.4375 0)"/>
      <use xlink:href="#TimesNewRomanPSMT-3" transform="translate(250.140625 0)"/>
      <use xlink:href="#TimesNewRomanPSMT-b" transform="translate(275.140625 0)"/>
      <use xlink:href="#TimesNewRomanPSMT-47" transform="translate(308.4375 0)"/>
      <use xlink:href="#TimesNewRomanPSMT-25" transform="translate(358.4375 0)"/>
      <use xlink:href="#TimesNewRomanPSMT-c" transform="translate(425.140625 0)"/>
     </g>
    </g>
   </g>
   <g id="line2d_23">
    <path d="M 46.480355 110.376887 
L 53.771016 107.921534 
L 61.061676 105.692938 
L 68.352337 103.67016 
L 75.642997 101.834189 
L 82.933658 100.167776 
L 90.224318 98.655259 
L 97.514979 97.282428 
L 104.805639 96.036381 
L 112.0963 94.905409 
L 119.38696 93.878886 
L 126.677621 92.947165 
L 133.968281 92.10149 
L 141.258942 91.333916 
L 148.549602 90.637229 
L 155.840263 90.004883 
L 163.130923 89.430935 
L 170.421584 88.909994 
L 177.712244 88.437162 
L 185.002905 88.007998 
L 192.293565 87.618468 
L 199.584226 87.264912 
L 206.874886 86.944008 
L 214.165547 86.65274 
L 221.456207 86.388371 
" clip-path="url(#pc5a63b2239)" style="fill: none; stroke: #252525; stroke-width: 1.5; stroke-linecap: square"/>
   </g>
   <g id="line2d_24">
    <path d="M 46.480355 110.376887 
L 53.771016 107.352918 
L 61.061676 104.659449 
L 68.352337 102.26036 
L 75.642997 100.123477 
L 82.933658 98.220143 
L 90.224318 96.524831 
L 97.514979 95.014806 
L 104.805639 93.669818 
L 112.0963 92.471828 
L 119.38696 91.404772 
L 126.677621 90.454338 
L 133.968281 89.607781 
L 141.258942 88.853748 
L 148.549602 88.182126 
L 155.840263 87.583907 
L 163.130923 87.051071 
L 170.421584 86.57647 
L 177.712244 86.15374 
L 185.002905 85.777212 
L 192.293565 85.441837 
L 199.584226 85.143115 
L 206.874886 84.877043 
L 214.165547 84.64005 
L 221.456207 84.428959 
" clip-path="url(#pc5a63b2239)" style="fill: none; stroke: #0057ff; stroke-width: 1.5; stroke-linecap: square"/>
   </g>
   <g id="patch_3">
    <path d="M 37.731563 111.674284 
L 37.731563 83.131563 
" style="fill: none; stroke: #000000; stroke-width: 0.8; stroke-linejoin: miter; stroke-linecap: square"/>
   </g>
   <g id="patch_4">
    <path d="M 37.731563 111.674284 
L 230.205 111.674284 
" style="fill: none; stroke: #000000; stroke-width: 0.8; stroke-linejoin: miter; stroke-linecap: square"/>
   </g>
   <g id="text_14">
    <!-- 15 updates / KF interval -->
    <g transform="translate(92.891367 77.131563) scale(0.085 -0.085)">
     <defs>
      <path id="TimesNewRomanPSMT-58" d="M 2709 2863 
L 2709 1128 
Q 2709 631 2732 520 
Q 2756 409 2807 365 
Q 2859 322 2928 322 
Q 3025 322 3147 375 
L 3191 266 
L 2334 -88 
L 2194 -88 
L 2194 519 
Q 1825 119 1631 15 
Q 1438 -88 1222 -88 
Q 981 -88 804 51 
Q 628 191 559 409 
Q 491 628 491 1028 
L 491 2306 
Q 491 2509 447 2587 
Q 403 2666 317 2708 
Q 231 2750 6 2747 
L 6 2863 
L 1009 2863 
L 1009 947 
Q 1009 547 1148 422 
Q 1288 297 1484 297 
Q 1619 297 1789 381 
Q 1959 466 2194 703 
L 2194 2325 
Q 2194 2569 2105 2655 
Q 2016 2741 1734 2747 
L 1734 2863 
L 2709 2863 
z
" transform="scale(0.015625)"/>
      <path id="TimesNewRomanPSMT-53" d="M -6 2578 
L 875 2934 
L 994 2934 
L 994 2266 
Q 1216 2644 1439 2795 
Q 1663 2947 1909 2947 
Q 2341 2947 2628 2609 
Q 2981 2197 2981 1534 
Q 2981 794 2556 309 
Q 2206 -88 1675 -88 
Q 1444 -88 1275 -22 
Q 1150 25 994 166 
L 994 -706 
Q 994 -1000 1030 -1079 
Q 1066 -1159 1155 -1206 
Q 1244 -1253 1478 -1253 
L 1478 -1369 
L -22 -1369 
L -22 -1253 
L 56 -1253 
Q 228 -1256 350 -1188 
Q 409 -1153 442 -1076 
Q 475 -1000 475 -688 
L 475 2019 
Q 475 2297 450 2372 
Q 425 2447 370 2484 
Q 316 2522 222 2522 
Q 147 2522 31 2478 
L -6 2578 
z
M 994 2081 
L 994 1013 
Q 994 666 1022 556 
Q 1066 375 1236 237 
Q 1406 100 1666 100 
Q 1978 100 2172 344 
Q 2425 663 2425 1241 
Q 2425 1897 2138 2250 
Q 1938 2494 1663 2494 
Q 1513 2494 1366 2419 
Q 1253 2363 994 2081 
z
" transform="scale(0.015625)"/>
      <path id="TimesNewRomanPSMT-44" d="M 1822 413 
Q 1381 72 1269 19 
Q 1100 -59 909 -59 
Q 613 -59 420 144 
Q 228 347 228 678 
Q 228 888 322 1041 
Q 450 1253 767 1440 
Q 1084 1628 1822 1897 
L 1822 2009 
Q 1822 2438 1686 2597 
Q 1550 2756 1291 2756 
Q 1094 2756 978 2650 
Q 859 2544 859 2406 
L 866 2225 
Q 866 2081 792 2003 
Q 719 1925 600 1925 
Q 484 1925 411 2006 
Q 338 2088 338 2228 
Q 338 2497 613 2722 
Q 888 2947 1384 2947 
Q 1766 2947 2009 2819 
Q 2194 2722 2281 2516 
Q 2338 2381 2338 1966 
L 2338 994 
Q 2338 584 2353 492 
Q 2369 400 2405 369 
Q 2441 338 2488 338 
Q 2538 338 2575 359 
Q 2641 400 2828 588 
L 2828 413 
Q 2478 -56 2159 -56 
Q 2006 -56 1915 50 
Q 1825 156 1822 413 
z
M 1822 616 
L 1822 1706 
Q 1350 1519 1213 1441 
Q 966 1303 859 1153 
Q 753 1003 753 825 
Q 753 600 887 451 
Q 1022 303 1197 303 
Q 1434 303 1822 616 
z
" transform="scale(0.015625)"/>
      <path id="TimesNewRomanPSMT-57" d="M 1031 3803 
L 1031 2863 
L 1700 2863 
L 1700 2644 
L 1031 2644 
L 1031 788 
Q 1031 509 1111 412 
Q 1191 316 1316 316 
Q 1419 316 1516 380 
Q 1613 444 1666 569 
L 1788 569 
Q 1678 263 1478 108 
Q 1278 -47 1066 -47 
Q 922 -47 784 33 
Q 647 113 581 261 
Q 516 409 516 719 
L 516 2644 
L 63 2644 
L 63 2747 
Q 234 2816 414 2980 
Q 594 3144 734 3369 
Q 806 3488 934 3803 
L 1031 3803 
z
" transform="scale(0.015625)"/>
      <path id="TimesNewRomanPSMT-56" d="M 2050 2947 
L 2050 1972 
L 1947 1972 
Q 1828 2431 1642 2597 
Q 1456 2763 1169 2763 
Q 950 2763 815 2647 
Q 681 2531 681 2391 
Q 681 2216 781 2091 
Q 878 1963 1175 1819 
L 1631 1597 
Q 2266 1288 2266 781 
Q 2266 391 1970 151 
Q 1675 -88 1309 -88 
Q 1047 -88 709 6 
Q 606 38 541 38 
Q 469 38 428 -44 
L 325 -44 
L 325 978 
L 428 978 
Q 516 541 762 319 
Q 1009 97 1316 97 
Q 1531 97 1667 223 
Q 1803 350 1803 528 
Q 1803 744 1651 891 
Q 1500 1038 1047 1263 
Q 594 1488 453 1669 
Q 313 1847 313 2119 
Q 313 2472 555 2709 
Q 797 2947 1181 2947 
Q 1350 2947 1591 2875 
Q 1750 2828 1803 2828 
Q 1853 2828 1881 2850 
Q 1909 2872 1947 2947 
L 2050 2947 
z
" transform="scale(0.015625)"/>
      <path id="TimesNewRomanPSMT-12" d="M 1794 4444 
L 259 -88 
L 9 -88 
L 1544 4444 
L 1794 4444 
z
" transform="scale(0.015625)"/>
      <path id="TimesNewRomanPSMT-2e" d="M 1913 2350 
L 3475 797 
Q 3859 413 4131 273 
Q 4403 134 4675 116 
L 4675 0 
L 2659 0 
L 2659 116 
Q 2841 116 2920 177 
Q 3000 238 3000 313 
Q 3000 388 2970 447 
Q 2941 506 2775 669 
L 1313 2116 
L 1313 750 
Q 1313 428 1353 325 
Q 1384 247 1484 191 
Q 1619 116 1769 116 
L 1913 116 
L 1913 0 
L 106 0 
L 106 116 
L 256 116 
Q 519 116 638 269 
Q 713 369 713 750 
L 713 3488 
Q 713 3809 672 3916 
Q 641 3991 544 4047 
Q 406 4122 256 4122 
L 106 4122 
L 106 4238 
L 1913 4238 
L 1913 4122 
L 1769 4122 
Q 1622 4122 1484 4050 
Q 1388 4000 1350 3900 
Q 1313 3800 1313 3488 
L 1313 2191 
Q 1375 2250 1741 2588 
Q 2669 3438 2863 3722 
Q 2947 3847 2947 3941 
Q 2947 4013 2881 4067 
Q 2816 4122 2659 4122 
L 2563 4122 
L 2563 4238 
L 4119 4238 
L 4119 4122 
Q 3981 4119 3868 4084 
Q 3756 4050 3593 3951 
Q 3431 3853 3194 3634 
Q 3125 3572 2559 2994 
L 1913 2350 
z
" transform="scale(0.015625)"/>
      <path id="TimesNewRomanPSMT-29" d="M 1309 4006 
L 1309 2341 
L 2081 2341 
Q 2347 2341 2470 2458 
Q 2594 2575 2634 2922 
L 2750 2922 
L 2750 1488 
L 2634 1488 
Q 2631 1734 2570 1850 
Q 2509 1966 2401 2023 
Q 2294 2081 2081 2081 
L 1309 2081 
L 1309 750 
Q 1309 428 1350 325 
Q 1381 247 1481 191 
Q 1619 116 1769 116 
L 1922 116 
L 1922 0 
L 103 0 
L 103 116 
L 253 116 
Q 516 116 634 269 
Q 709 369 709 750 
L 709 3488 
Q 709 3809 669 3913 
Q 638 3991 541 4047 
Q 406 4122 253 4122 
L 103 4122 
L 103 4238 
L 3256 4238 
L 3297 3306 
L 3188 3306 
Q 3106 3603 2998 3742 
Q 2891 3881 2733 3943 
Q 2575 4006 2244 4006 
L 1309 4006 
z
" transform="scale(0.015625)"/>
      <path id="TimesNewRomanPSMT-4c" d="M 928 4444 
Q 1059 4444 1151 4351 
Q 1244 4259 1244 4128 
Q 1244 3997 1151 3903 
Q 1059 3809 928 3809 
Q 797 3809 703 3903 
Q 609 3997 609 4128 
Q 609 4259 701 4351 
Q 794 4444 928 4444 
z
M 1188 2947 
L 1188 647 
Q 1188 378 1227 289 
Q 1266 200 1342 156 
Q 1419 113 1622 113 
L 1622 0 
L 231 0 
L 231 113 
Q 441 113 512 153 
Q 584 194 626 287 
Q 669 381 669 647 
L 669 1750 
Q 669 2216 641 2353 
Q 619 2453 572 2492 
Q 525 2531 444 2531 
Q 356 2531 231 2484 
L 188 2597 
L 1050 2947 
L 1188 2947 
z
" transform="scale(0.015625)"/>
      <path id="TimesNewRomanPSMT-51" d="M 1034 2341 
Q 1538 2947 1994 2947 
Q 2228 2947 2397 2830 
Q 2566 2713 2666 2444 
Q 2734 2256 2734 1869 
L 2734 647 
Q 2734 375 2778 278 
Q 2813 200 2889 156 
Q 2966 113 3172 113 
L 3172 0 
L 1756 0 
L 1756 113 
L 1816 113 
Q 2016 113 2095 173 
Q 2175 234 2206 353 
Q 2219 400 2219 647 
L 2219 1819 
Q 2219 2209 2117 2386 
Q 2016 2563 1775 2563 
Q 1403 2563 1034 2156 
L 1034 647 
Q 1034 356 1069 288 
Q 1113 197 1189 155 
Q 1266 113 1500 113 
L 1500 0 
L 84 0 
L 84 113 
L 147 113 
Q 366 113 442 223 
Q 519 334 519 647 
L 519 1709 
Q 519 2225 495 2337 
Q 472 2450 423 2490 
Q 375 2531 294 2531 
Q 206 2531 84 2484 
L 38 2597 
L 900 2947 
L 1034 2947 
L 1034 2341 
z
" transform="scale(0.015625)"/>
      <path id="TimesNewRomanPSMT-55" d="M 1038 2947 
L 1038 2303 
Q 1397 2947 1775 2947 
Q 1947 2947 2059 2842 
Q 2172 2738 2172 2600 
Q 2172 2478 2090 2393 
Q 2009 2309 1897 2309 
Q 1788 2309 1652 2417 
Q 1516 2525 1450 2525 
Q 1394 2525 1328 2463 
Q 1188 2334 1038 2041 
L 1038 669 
Q 1038 431 1097 309 
Q 1138 225 1241 169 
Q 1344 113 1538 113 
L 1538 0 
L 72 0 
L 72 113 
Q 291 113 397 181 
Q 475 231 506 341 
Q 522 394 522 644 
L 522 1753 
Q 522 2253 501 2348 
Q 481 2444 426 2487 
Q 372 2531 291 2531 
Q 194 2531 72 2484 
L 41 2597 
L 906 2947 
L 1038 2947 
z
" transform="scale(0.015625)"/>
      <path id="TimesNewRomanPSMT-59" d="M 53 2863 
L 1400 2863 
L 1400 2747 
L 1313 2747 
Q 1191 2747 1127 2687 
Q 1063 2628 1063 2528 
Q 1063 2419 1128 2269 
L 1794 688 
L 2463 2328 
Q 2534 2503 2534 2594 
Q 2534 2638 2509 2666 
Q 2475 2713 2422 2730 
Q 2369 2747 2206 2747 
L 2206 2863 
L 3141 2863 
L 3141 2747 
Q 2978 2734 2916 2681 
Q 2806 2588 2719 2369 
L 1703 -88 
L 1575 -88 
L 553 2328 
Q 484 2497 421 2570 
Q 359 2644 263 2694 
Q 209 2722 53 2747 
L 53 2863 
z
" transform="scale(0.015625)"/>
      <path id="TimesNewRomanPSMT-4f" d="M 1184 4444 
L 1184 647 
Q 1184 378 1223 290 
Q 1263 203 1344 158 
Q 1425 113 1647 113 
L 1647 0 
L 244 0 
L 244 113 
Q 441 113 512 153 
Q 584 194 625 287 
Q 666 381 666 647 
L 666 3247 
Q 666 3731 644 3842 
Q 622 3953 573 3993 
Q 525 4034 450 4034 
Q 369 4034 244 3984 
L 191 4094 
L 1044 4444 
L 1184 4444 
z
" transform="scale(0.015625)"/>
     </defs>
     <use xlink:href="#TimesNewRomanPSMT-14"/>
     <use xlink:href="#TimesNewRomanPSMT-18" transform="translate(50 0)"/>
     <use xlink:href="#TimesNewRomanPSMT-3" transform="translate(100 0)"/>
     <use xlink:href="#TimesNewRomanPSMT-58" transform="translate(125 0)"/>
     <use xlink:href="#TimesNewRomanPSMT-53" transform="translate(175 0)"/>
     <use xlink:href="#TimesNewRomanPSMT-47" transform="translate(225 0)"/>
     <use xlink:href="#TimesNewRomanPSMT-44" transform="translate(275 0)"/>
     <use xlink:href="#TimesNewRomanPSMT-57" transform="translate(319.390625 0)"/>
     <use xlink:href="#TimesNewRomanPSMT-48" transform="translate(347.171875 0)"/>
     <use xlink:href="#TimesNewRomanPSMT-56" transform="translate(391.5625 0)"/>
     <use xlink:href="#TimesNewRomanPSMT-3" transform="translate(430.484375 0)"/>
     <use xlink:href="#TimesNewRomanPSMT-12" transform="translate(455.484375 0)"/>
     <use xlink:href="#TimesNewRomanPSMT-3" transform="translate(483.265625 0)"/>
     <use xlink:href="#TimesNewRomanPSMT-2e" transform="translate(508.265625 0)"/>
     <use xlink:href="#TimesNewRomanPSMT-29" transform="translate(580.484375 0)"/>
     <use xlink:href="#TimesNewRomanPSMT-3" transform="translate(636.09375 0)"/>
     <use xlink:href="#TimesNewRomanPSMT-4c" transform="translate(661.09375 0)"/>
     <use xlink:href="#TimesNewRomanPSMT-51" transform="translate(688.875 0)"/>
     <use xlink:href="#TimesNewRomanPSMT-57" transform="translate(738.875 0)"/>
     <use xlink:href="#TimesNewRomanPSMT-48" transform="translate(766.65625 0)"/>
     <use xlink:href="#TimesNewRomanPSMT-55" transform="translate(811.046875 0)"/>
     <use xlink:href="#TimesNewRomanPSMT-59" transform="translate(844.34375 0)"/>
     <use xlink:href="#TimesNewRomanPSMT-44" transform="translate(894.34375 0)"/>
     <use xlink:href="#TimesNewRomanPSMT-4f" transform="translate(938.734375 0)"/>
    </g>
   </g>
   <g id="legend_1">
    <g id="line2d_25">
     <path d="M 147.119375 91.502799 
L 154.119375 91.502799 
L 161.119375 91.502799 
" style="fill: none; stroke: #252525; stroke-width: 1.5; stroke-linecap: square"/>
    </g>
    <g id="text_15">
     <!-- RR -->
     <g transform="translate(166.719375 93.952799) scale(0.07 -0.07)">
      <use xlink:href="#TimesNewRomanPSMT-35"/>
      <use xlink:href="#TimesNewRomanPSMT-35" transform="translate(66.703125 0)"/>
     </g>
    </g>
    <g id="line2d_26">
     <path d="M 147.119375 101.413542 
L 154.119375 101.413542 
L 161.119375 101.413542 
" style="fill: none; stroke: #0057ff; stroke-width: 1.5; stroke-linecap: square"/>
    </g>
    <g id="text_16">
     <!-- ERCB/ERVS (draft) -->
     <g transform="translate(166.719375 103.863542) scale(0.07 -0.07)">
      <defs>
       <path id="TimesNewRomanPSMT-28" d="M 1338 4006 
L 1338 2331 
L 2269 2331 
Q 2631 2331 2753 2441 
Q 2916 2584 2934 2947 
L 3050 2947 
L 3050 1472 
L 2934 1472 
Q 2891 1781 2847 1869 
Q 2791 1978 2662 2040 
Q 2534 2103 2269 2103 
L 1338 2103 
L 1338 706 
Q 1338 425 1363 364 
Q 1388 303 1450 267 
Q 1513 231 1688 231 
L 2406 231 
Q 2766 231 2928 281 
Q 3091 331 3241 478 
Q 3434 672 3638 1063 
L 3763 1063 
L 3397 0 
L 131 0 
L 131 116 
L 281 116 
Q 431 116 566 188 
Q 666 238 702 338 
Q 738 438 738 747 
L 738 3500 
Q 738 3903 656 3997 
Q 544 4122 281 4122 
L 131 4122 
L 131 4238 
L 3397 4238 
L 3444 3309 
L 3322 3309 
Q 3256 3644 3176 3769 
Q 3097 3894 2941 3959 
Q 2816 4006 2500 4006 
L 1338 4006 
z
" transform="scale(0.015625)"/>
       <path id="TimesNewRomanPSMT-26" d="M 3853 4334 
L 3950 2894 
L 3853 2894 
Q 3659 3541 3300 3825 
Q 2941 4109 2438 4109 
Q 2016 4109 1675 3895 
Q 1334 3681 1139 3212 
Q 944 2744 944 2047 
Q 944 1472 1128 1050 
Q 1313 628 1683 403 
Q 2053 178 2528 178 
Q 2941 178 3256 354 
Q 3572 531 3950 1056 
L 4047 994 
Q 3728 428 3303 165 
Q 2878 -97 2294 -97 
Q 1241 -97 663 684 
Q 231 1266 231 2053 
Q 231 2688 515 3219 
Q 800 3750 1298 4042 
Q 1797 4334 2388 4334 
Q 2847 4334 3294 4109 
Q 3425 4041 3481 4041 
Q 3566 4041 3628 4100 
Q 3709 4184 3744 4334 
L 3853 4334 
z
" transform="scale(0.015625)"/>
       <path id="TimesNewRomanPSMT-39" d="M 4544 4238 
L 4544 4122 
Q 4319 4081 4203 3978 
Q 4038 3825 3909 3509 
L 2431 -97 
L 2316 -97 
L 728 3556 
Q 606 3838 556 3900 
Q 478 3997 364 4051 
Q 250 4106 56 4122 
L 56 4238 
L 1788 4238 
L 1788 4122 
Q 1494 4094 1406 4022 
Q 1319 3950 1319 3838 
Q 1319 3681 1463 3350 
L 2541 866 
L 3541 3319 
Q 3688 3681 3688 3822 
Q 3688 3913 3597 3995 
Q 3506 4078 3291 4113 
Q 3275 4116 3238 4122 
L 3238 4238 
L 4544 4238 
z
" transform="scale(0.015625)"/>
       <path id="TimesNewRomanPSMT-49" d="M 1319 2638 
L 1319 756 
Q 1319 356 1406 250 
Q 1522 113 1716 113 
L 1975 113 
L 1975 0 
L 266 0 
L 266 113 
L 394 113 
Q 519 113 622 175 
Q 725 238 764 344 
Q 803 450 803 756 
L 803 2638 
L 247 2638 
L 247 2863 
L 803 2863 
L 803 3050 
Q 803 3478 940 3775 
Q 1078 4072 1361 4255 
Q 1644 4438 1997 4438 
Q 2325 4438 2600 4225 
Q 2781 4084 2781 3909 
Q 2781 3816 2700 3733 
Q 2619 3650 2525 3650 
Q 2453 3650 2373 3701 
Q 2294 3753 2178 3923 
Q 2063 4094 1966 4153 
Q 1869 4213 1750 4213 
Q 1606 4213 1506 4136 
Q 1406 4059 1362 3898 
Q 1319 3738 1319 3069 
L 1319 2863 
L 2056 2863 
L 2056 2638 
L 1319 2638 
z
" transform="scale(0.015625)"/>
      </defs>
      <use xlink:href="#TimesNewRomanPSMT-28"/>
      <use xlink:href="#TimesNewRomanPSMT-35" transform="translate(61.078125 0)"/>
      <use xlink:href="#TimesNewRomanPSMT-26" transform="translate(127.78125 0)"/>
      <use xlink:href="#TimesNewRomanPSMT-25" transform="translate(194.484375 0)"/>
      <use xlink:href="#TimesNewRomanPSMT-12" transform="translate(261.1875 0)"/>
      <use xlink:href="#TimesNewRomanPSMT-28" transform="translate(288.96875 0)"/>
      <use xlink:href="#TimesNewRomanPSMT-35" transform="translate(350.046875 0)"/>
      <use xlink:href="#TimesNewRomanPSMT-39" transform="translate(408.75 0)"/>
      <use xlink:href="#TimesNewRomanPSMT-36" transform="translate(480.96875 0)"/>
      <use xlink:href="#TimesNewRomanPSMT-3" transform="translate(536.578125 0)"/>
      <use xlink:href="#TimesNewRomanPSMT-b" transform="translate(561.578125 0)"/>
      <use xlink:href="#TimesNewRomanPSMT-47" transform="translate(594.875 0)"/>
      <use xlink:href="#TimesNewRomanPSMT-55" transform="translate(644.875 0)"/>
      <use xlink:href="#TimesNewRomanPSMT-44" transform="translate(678.171875 0)"/>
      <use xlink:href="#TimesNewRomanPSMT-49" transform="translate(722.5625 0)"/>
      <use xlink:href="#TimesNewRomanPSMT-57" transform="translate(755.859375 0)"/>
      <use xlink:href="#TimesNewRomanPSMT-c" transform="translate(783.640625 0)"/>
     </g>
    </g>
   </g>
  </g>
  <g id="axes_2">
   <g id="patch_5">
    <path d="M 37.731563 184.43849 
L 230.205 184.43849 
L 230.205 155.895768 
L 37.731563 155.895768 
z
" style="fill: #ffffff"/>
   </g>
   <g id="matplotlib.axis_3">
    <g id="xtick_9">
     <g id="line2d_27">
      <path d="M 46.480355 184.43849 
L 46.480355 155.895768 
" clip-path="url(#p922cc968ad)" style="fill: none; stroke: #b0b0b0; stroke-opacity: 0.2; stroke-width: 0.8; stroke-linecap: square"/>
     </g>
     <g id="line2d_28">
      <g>
       <use xlink:href="#m9f6c7d2e10" x="46.480355" y="184.43849" style="stroke: #000000; stroke-width: 0.8"/>
      </g>
     </g>
     <g id="text_17">
      <!-- 0.0 -->
      <g transform="translate(42.105355 196.292005) scale(0.07 -0.07)">
       <use xlink:href="#TimesNewRomanPSMT-13"/>
       <use xlink:href="#TimesNewRomanPSMT-11" transform="translate(50 0)"/>
       <use xlink:href="#TimesNewRomanPSMT-13" transform="translate(75 0)"/>
      </g>
     </g>
    </g>
    <g id="xtick_10">
     <g id="line2d_29">
      <path d="M 75.642997 184.43849 
L 75.642997 155.895768 
" clip-path="url(#p922cc968ad)" style="fill: none; stroke: #b0b0b0; stroke-opacity: 0.2; stroke-width: 0.8; stroke-linecap: square"/>
     </g>
     <g id="line2d_30">
      <g>
       <use xlink:href="#m9f6c7d2e10" x="75.642997" y="184.43849" style="stroke: #000000; stroke-width: 0.8"/>
      </g>
     </g>
     <g id="text_18">
      <!-- 0.5 -->
      <g transform="translate(71.267997 196.292005) scale(0.07 -0.07)">
       <use xlink:href="#TimesNewRomanPSMT-13"/>
       <use xlink:href="#TimesNewRomanPSMT-11" transform="translate(50 0)"/>
       <use xlink:href="#TimesNewRomanPSMT-18" transform="translate(75 0)"/>
      </g>
     </g>
    </g>
    <g id="xtick_11">
     <g id="line2d_31">
      <path d="M 104.805639 184.43849 
L 104.805639 155.895768 
" clip-path="url(#p922cc968ad)" style="fill: none; stroke: #b0b0b0; stroke-opacity: 0.2; stroke-width: 0.8; stroke-linecap: square"/>
     </g>
     <g id="line2d_32">
      <g>
       <use xlink:href="#m9f6c7d2e10" x="104.805639" y="184.43849" style="stroke: #000000; stroke-width: 0.8"/>
      </g>
     </g>
     <g id="text_19">
      <!-- 1.0 -->
      <g transform="translate(100.430639 196.292005) scale(0.07 -0.07)">
       <use xlink:href="#TimesNewRomanPSMT-14"/>
       <use xlink:href="#TimesNewRomanPSMT-11" transform="translate(50 0)"/>
       <use xlink:href="#TimesNewRomanPSMT-13" transform="translate(75 0)"/>
      </g>
     </g>
    </g>
    <g id="xtick_12">
     <g id="line2d_33">
      <path d="M 133.968281 184.43849 
L 133.968281 155.895768 
" clip-path="url(#p922cc968ad)" style="fill: none; stroke: #b0b0b0; stroke-opacity: 0.2; stroke-width: 0.8; stroke-linecap: square"/>
     </g>
     <g id="line2d_34">
      <g>
       <use xlink:href="#m9f6c7d2e10" x="133.968281" y="184.43849" style="stroke: #000000; stroke-width: 0.8"/>
      </g>
     </g>
     <g id="text_20">
      <!-- 1.5 -->
      <g transform="translate(129.593281 196.292005) scale(0.07 -0.07)">
       <use xlink:href="#TimesNewRomanPSMT-14"/>
       <use xlink:href="#TimesNewRomanPSMT-11" transform="translate(50 0)"/>
       <use xlink:href="#TimesNewRomanPSMT-18" transform="translate(75 0)"/>
      </g>
     </g>
    </g>
    <g id="xtick_13">
     <g id="line2d_35">
      <path d="M 163.130923 184.43849 
L 163.130923 155.895768 
" clip-path="url(#p922cc968ad)" style="fill: none; stroke: #b0b0b0; stroke-opacity: 0.2; stroke-width: 0.8; stroke-linecap: square"/>
     </g>
     <g id="line2d_36">
      <g>
       <use xlink:href="#m9f6c7d2e10" x="163.130923" y="184.43849" style="stroke: #000000; stroke-width: 0.8"/>
      </g>
     </g>
     <g id="text_21">
      <!-- 2.0 -->
      <g transform="translate(158.755923 196.292005) scale(0.07 -0.07)">
       <use xlink:href="#TimesNewRomanPSMT-15"/>
       <use xlink:href="#TimesNewRomanPSMT-11" transform="translate(50 0)"/>
       <use xlink:href="#TimesNewRomanPSMT-13" transform="translate(75 0)"/>
      </g>
     </g>
    </g>
    <g id="xtick_14">
     <g id="line2d_37">
      <path d="M 192.293565 184.43849 
L 192.293565 155.895768 
" clip-path="url(#p922cc968ad)" style="fill: none; stroke: #b0b0b0; stroke-opacity: 0.2; stroke-width: 0.8; stroke-linecap: square"/>
     </g>
     <g id="line2d_38">
      <g>
       <use xlink:href="#m9f6c7d2e10" x="192.293565" y="184.43849" style="stroke: #000000; stroke-width: 0.8"/>
      </g>
     </g>
     <g id="text_22">
      <!-- 2.5 -->
      <g transform="translate(187.918565 196.292005) scale(0.07 -0.07)">
       <use xlink:href="#TimesNewRomanPSMT-15"/>
       <use xlink:href="#TimesNewRomanPSMT-11" transform="translate(50 0)"/>
       <use xlink:href="#TimesNewRomanPSMT-18" transform="translate(75 0)"/>
      </g>
     </g>
    </g>
    <g id="xtick_15">
     <g id="line2d_39">
      <path d="M 221.456207 184.43849 
L 221.456207 155.895768 
" clip-path="url(#p922cc968ad)" style="fill: none; stroke: #b0b0b0; stroke-opacity: 0.2; stroke-width: 0.8; stroke-linecap: square"/>
     </g>
     <g id="line2d_40">
      <g>
       <use xlink:href="#m9f6c7d2e10" x="221.456207" y="184.43849" style="stroke: #000000; stroke-width: 0.8"/>
      </g>
     </g>
     <g id="text_23">
      <!-- 3.0 -->
      <g transform="translate(217.081207 196.292005) scale(0.07 -0.07)">
       <use xlink:href="#TimesNewRomanPSMT-16"/>
       <use xlink:href="#TimesNewRomanPSMT-11" transform="translate(50 0)"/>
       <use xlink:href="#TimesNewRomanPSMT-13" transform="translate(75 0)"/>
      </g>
     </g>
    </g>
    <g id="text_24">
     <!-- 1e3 -->
     <g transform="translate(220.097656 205.656263) scale(0.07 -0.07)">
      <use xlink:href="#TimesNewRomanPSMT-14"/>
      <use xlink:href="#TimesNewRomanPSMT-48" transform="translate(50 0)"/>
      <use xlink:href="#TimesNewRomanPSMT-16" transform="translate(94.390625 0)"/>
     </g>
    </g>
   </g>
   <g id="matplotlib.axis_4">
    <g id="ytick_4">
     <g id="line2d_41">
      <path d="M 37.731563 177.98552 
L 230.205 177.98552 
" clip-path="url(#p922cc968ad)" style="fill: none; stroke: #b0b0b0; stroke-opacity: 0.2; stroke-width: 0.8; stroke-linecap: square"/>
     </g>
     <g id="line2d_42">
      <g>
       <use xlink:href="#me4b5cc51e1" x="37.731563" y="177.98552" style="stroke: #000000; stroke-width: 0.8"/>
      </g>
     </g>
     <g id="text_25">
      <!-- 17.5 -->
      <g transform="translate(18.481563 180.412278) scale(0.07 -0.07)">
       <use xlink:href="#TimesNewRomanPSMT-14"/>
       <use xlink:href="#TimesNewRomanPSMT-1a" transform="translate(50 0)"/>
       <use xlink:href="#TimesNewRomanPSMT-11" transform="translate(100 0)"/>
       <use xlink:href="#TimesNewRomanPSMT-18" transform="translate(125 0)"/>
      </g>
     </g>
    </g>
    <g id="ytick_5">
     <g id="line2d_43">
      <path d="M 37.731563 169.392898 
L 230.205 169.392898 
" clip-path="url(#p922cc968ad)" style="fill: none; stroke: #b0b0b0; stroke-opacity: 0.2; stroke-width: 0.8; stroke-linecap: square"/>
     </g>
     <g id="line2d_44">
      <g>
       <use xlink:href="#me4b5cc51e1" x="37.731563" y="169.392898" style="stroke: #000000; stroke-width: 0.8"/>
      </g>
     </g>
     <g id="text_26">
      <!-- 20.0 -->
      <g transform="translate(18.481563 171.819655) scale(0.07 -0.07)">
       <use xlink:href="#TimesNewRomanPSMT-15"/>
       <use xlink:href="#TimesNewRomanPSMT-13" transform="translate(50 0)"/>
       <use xlink:href="#TimesNewRomanPSMT-11" transform="translate(100 0)"/>
       <use xlink:href="#TimesNewRomanPSMT-13" transform="translate(125 0)"/>
      </g>
     </g>
    </g>
    <g id="ytick_6">
     <g id="line2d_45">
      <path d="M 37.731563 160.800275 
L 230.205 160.800275 
" clip-path="url(#p922cc968ad)" style="fill: none; stroke: #b0b0b0; stroke-opacity: 0.2; stroke-width: 0.8; stroke-linecap: square"/>
     </g>
     <g id="line2d_46">
      <g>
       <use xlink:href="#me4b5cc51e1" x="37.731563" y="160.800275" style="stroke: #000000; stroke-width: 0.8"/>
      </g>
     </g>
     <g id="text_27">
      <!-- 22.5 -->
      <g transform="translate(18.481563 163.227033) scale(0.07 -0.07)">
       <use xlink:href="#TimesNewRomanPSMT-15"/>
       <use xlink:href="#TimesNewRomanPSMT-15" transform="translate(50 0)"/>
       <use xlink:href="#TimesNewRomanPSMT-11" transform="translate(100 0)"/>
       <use xlink:href="#TimesNewRomanPSMT-18" transform="translate(125 0)"/>
      </g>
     </g>
    </g>
    <g id="text_28">
     <!-- PSNR (dB) -->
     <g transform="translate(12.755 188.504629) rotate(-90) scale(0.08 -0.08)">
      <use xlink:href="#TimesNewRomanPSMT-33"/>
      <use xlink:href="#TimesNewRomanPSMT-36" transform="translate(55.609375 0)"/>
      <use xlink:href="#TimesNewRomanPSMT-31" transform="translate(111.21875 0)"/>
      <use xlink:href="#TimesNewRomanPSMT-35" transform="translate(183.4375 0)"/>
      <use xlink:href="#TimesNewRomanPSMT-3" transform="translate(250.140625 0)"/>
      <use xlink:href="#TimesNewRomanPSMT-b" transform="translate(275.140625 0)"/>
      <use xlink:href="#TimesNewRomanPSMT-47" transform="translate(308.4375 0)"/>
      <use xlink:href="#TimesNewRomanPSMT-25" transform="translate(358.4375 0)"/>
      <use xlink:href="#TimesNewRomanPSMT-c" transform="translate(425.140625 0)"/>
     </g>
    </g>
   </g>
   <g id="line2d_47">
    <path d="M 46.480355 183.141093 
L 53.771016 180.681087 
L 61.061676 178.448268 
L 68.352337 176.421656 
L 75.642997 174.582207 
L 82.933658 172.912636 
L 90.224318 171.397253 
L 97.514979 170.02182 
L 104.805639 168.773412 
L 112.0963 167.640298 
L 119.38696 166.611829 
L 126.677621 165.678342 
L 133.968281 164.831065 
L 141.258942 164.062036 
L 148.549602 163.364029 
L 155.840263 162.730485 
L 163.130923 162.15545 
L 170.421584 161.633521 
L 177.712244 161.159793 
L 185.002905 160.729816 
L 192.293565 160.339548 
L 199.584226 159.985322 
L 206.874886 159.66381 
L 214.165547 159.37199 
L 221.456207 159.10712 
" clip-path="url(#p922cc968ad)" style="fill: none; stroke: #252525; stroke-width: 1.5; stroke-linecap: square"/>
   </g>
   <g id="line2d_48">
    <path d="M 46.480355 183.141093 
L 53.771016 180.117123 
L 61.061676 177.423655 
L 68.352337 175.024566 
L 75.642997 172.887683 
L 82.933658 170.984348 
L 90.224318 169.289036 
L 97.514979 167.779012 
L 104.805639 166.434023 
L 112.0963 165.236034 
L 119.38696 164.168978 
L 126.677621 163.218544 
L 133.968281 162.371987 
L 141.258942 161.617954 
L 148.549602 160.946331 
L 155.840263 160.348113 
L 163.130923 159.815277 
L 170.421584 159.340676 
L 177.712244 158.917946 
L 185.002905 158.541418 
L 192.293565 158.206042 
L 199.584226 157.907321 
L 206.874886 157.641248 
L 214.165547 157.404256 
L 221.456207 157.193165 
" clip-path="url(#p922cc968ad)" style="fill: none; stroke: #0057ff; stroke-width: 1.5; stroke-linecap: square"/>
   </g>
   <g id="patch_6">
    <path d="M 37.731563 184.43849 
L 37.731563 155.895768 
" style="fill: none; stroke: #000000; stroke-width: 0.8; stroke-linejoin: miter; stroke-linecap: square"/>
   </g>
   <g id="patch_7">
    <path d="M 37.731563 184.43849 
L 230.205 184.43849 
" style="fill: none; stroke: #000000; stroke-width: 0.8; stroke-linejoin: miter; stroke-linecap: square"/>
   </g>
   <g id="text_29">
    <!-- 30 updates / KF interval -->
    <g transform="translate(92.891367 149.895768) scale(0.085 -0.085)">
     <use xlink:href="#TimesNewRomanPSMT-16"/>
     <use xlink:href="#TimesNewRomanPSMT-13" transform="translate(50 0)"/>
     <use xlink:href="#TimesNewRomanPSMT-3" transform="translate(100 0)"/>
     <use xlink:href="#TimesNewRomanPSMT-58" transform="translate(125 0)"/>
     <use xlink:href="#TimesNewRomanPSMT-53" transform="translate(175 0)"/>
     <use xlink:href="#TimesNewRomanPSMT-47" transform="translate(225 0)"/>
     <use xlink:href="#TimesNewRomanPSMT-44" transform="translate(275 0)"/>
     <use xlink:href="#TimesNewRomanPSMT-57" transform="translate(319.390625 0)"/>
     <use xlink:href="#TimesNewRomanPSMT-48" transform="translate(347.171875 0)"/>
     <use xlink:href="#TimesNewRomanPSMT-56" transform="translate(391.5625 0)"/>
     <use xlink:href="#TimesNewRomanPSMT-3" transform="translate(430.484375 0)"/>
     <use xlink:href="#TimesNewRomanPSMT-12" transform="translate(455.484375 0)"/>
     <use xlink:href="#TimesNewRomanPSMT-3" transform="translate(483.265625 0)"/>
     <use xlink:href="#TimesNewRomanPSMT-2e" transform="translate(508.265625 0)"/>
     <use xlink:href="#TimesNewRomanPSMT-29" transform="translate(580.484375 0)"/>
     <use xlink:href="#TimesNewRomanPSMT-3" transform="translate(636.09375 0)"/>
     <use xlink:href="#TimesNewRomanPSMT-4c" transform="translate(661.09375 0)"/>
     <use xlink:href="#TimesNewRomanPSMT-51" transform="translate(688.875 0)"/>
     <use xlink:href="#TimesNewRomanPSMT-57" transform="translate(738.875 0)"/>
     <use xlink:href="#TimesNewRomanPSMT-48" transform="translate(766.65625 0)"/>
     <use xlink:href="#TimesNewRomanPSMT-55" transform="translate(811.046875 0)"/>
     <use xlink:href="#TimesNewRomanPSMT-59" transform="translate(844.34375 0)"/>
     <use xlink:href="#TimesNewRomanPSMT-44" transform="translate(894.34375 0)"/>
     <use xlink:href="#TimesNewRomanPSMT-4f" transform="translate(938.734375 0)"/>
    </g>
   </g>
  </g>
  <g id="axes_3">
   <g id="patch_8">
    <path d="M 37.731563 257.202695 
L 230.205 257.202695 
L 230.205 228.659974 
L 37.731563 228.659974 
z
" style="fill: #ffffff"/>
   </g>
   <g id="matplotlib.axis_5">
    <g id="xtick_16">
     <g id="line2d_49">
      <path d="M 46.480355 257.202695 
L 46.480355 228.659974 
" clip-path="url(#p1b5619448c)" style="fill: none; stroke: #b0b0b0; stroke-opacity: 0.2; stroke-width: 0.8; stroke-linecap: square"/>
     </g>
     <g id="line2d_50">
      <g>
       <use xlink:href="#m9f6c7d2e10" x="46.480355" y="257.202695" style="stroke: #000000; stroke-width: 0.8"/>
      </g>
     </g>
     <g id="text_30">
      <!-- 0 -->
      <g transform="translate(44.730355 269.056211) scale(0.07 -0.07)">
       <use xlink:href="#TimesNewRomanPSMT-13"/>
      </g>
     </g>
    </g>
    <g id="xtick_17">
     <g id="line2d_51">
      <path d="M 75.642997 257.202695 
L 75.642997 228.659974 
" clip-path="url(#p1b5619448c)" style="fill: none; stroke: #b0b0b0; stroke-opacity: 0.2; stroke-width: 0.8; stroke-linecap: square"/>
     </g>
     <g id="line2d_52">
      <g>
       <use xlink:href="#m9f6c7d2e10" x="75.642997" y="257.202695" style="stroke: #000000; stroke-width: 0.8"/>
      </g>
     </g>
     <g id="text_31">
      <!-- 1 -->
      <g transform="translate(73.892997 269.056211) scale(0.07 -0.07)">
       <use xlink:href="#TimesNewRomanPSMT-14"/>
      </g>
     </g>
    </g>
    <g id="xtick_18">
     <g id="line2d_53">
      <path d="M 104.805639 257.202695 
L 104.805639 228.659974 
" clip-path="url(#p1b5619448c)" style="fill: none; stroke: #b0b0b0; stroke-opacity: 0.2; stroke-width: 0.8; stroke-linecap: square"/>
     </g>
     <g id="line2d_54">
      <g>
       <use xlink:href="#m9f6c7d2e10" x="104.805639" y="257.202695" style="stroke: #000000; stroke-width: 0.8"/>
      </g>
     </g>
     <g id="text_32">
      <!-- 2 -->
      <g transform="translate(103.055639 269.056211) scale(0.07 -0.07)">
       <use xlink:href="#TimesNewRomanPSMT-15"/>
      </g>
     </g>
    </g>
    <g id="xtick_19">
     <g id="line2d_55">
      <path d="M 133.968281 257.202695 
L 133.968281 228.659974 
" clip-path="url(#p1b5619448c)" style="fill: none; stroke: #b0b0b0; stroke-opacity: 0.2; stroke-width: 0.8; stroke-linecap: square"/>
     </g>
     <g id="line2d_56">
      <g>
       <use xlink:href="#m9f6c7d2e10" x="133.968281" y="257.202695" style="stroke: #000000; stroke-width: 0.8"/>
      </g>
     </g>
     <g id="text_33">
      <!-- 3 -->
      <g transform="translate(132.218281 269.056211) scale(0.07 -0.07)">
       <use xlink:href="#TimesNewRomanPSMT-16"/>
      </g>
     </g>
    </g>
    <g id="xtick_20">
     <g id="line2d_57">
      <path d="M 163.130923 257.202695 
L 163.130923 228.659974 
" clip-path="url(#p1b5619448c)" style="fill: none; stroke: #b0b0b0; stroke-opacity: 0.2; stroke-width: 0.8; stroke-linecap: square"/>
     </g>
     <g id="line2d_58">
      <g>
       <use xlink:href="#m9f6c7d2e10" x="163.130923" y="257.202695" style="stroke: #000000; stroke-width: 0.8"/>
      </g>
     </g>
     <g id="text_34">
      <!-- 4 -->
      <g transform="translate(161.380923 269.056211) scale(0.07 -0.07)">
       <use xlink:href="#TimesNewRomanPSMT-17"/>
      </g>
     </g>
    </g>
    <g id="xtick_21">
     <g id="line2d_59">
      <path d="M 192.293565 257.202695 
L 192.293565 228.659974 
" clip-path="url(#p1b5619448c)" style="fill: none; stroke: #b0b0b0; stroke-opacity: 0.2; stroke-width: 0.8; stroke-linecap: square"/>
     </g>
     <g id="line2d_60">
      <g>
       <use xlink:href="#m9f6c7d2e10" x="192.293565" y="257.202695" style="stroke: #000000; stroke-width: 0.8"/>
      </g>
     </g>
     <g id="text_35">
      <!-- 5 -->
      <g transform="translate(190.543565 269.056211) scale(0.07 -0.07)">
       <use xlink:href="#TimesNewRomanPSMT-18"/>
      </g>
     </g>
    </g>
    <g id="xtick_22">
     <g id="line2d_61">
      <path d="M 221.456207 257.202695 
L 221.456207 228.659974 
" clip-path="url(#p1b5619448c)" style="fill: none; stroke: #b0b0b0; stroke-opacity: 0.2; stroke-width: 0.8; stroke-linecap: square"/>
     </g>
     <g id="line2d_62">
      <g>
       <use xlink:href="#m9f6c7d2e10" x="221.456207" y="257.202695" style="stroke: #000000; stroke-width: 0.8"/>
      </g>
     </g>
     <g id="text_36">
      <!-- 6 -->
      <g transform="translate(219.706207 269.056211) scale(0.07 -0.07)">
       <use xlink:href="#TimesNewRomanPSMT-19"/>
      </g>
     </g>
    </g>
    <g id="text_37">
     <!-- Completed optimizer steps -->
     <g transform="translate(91.086406 280.121953) scale(0.08 -0.08)">
      <defs>
       <path id="TimesNewRomanPSMT-52" d="M 1600 2947 
Q 2250 2947 2644 2453 
Q 2978 2031 2978 1484 
Q 2978 1100 2793 706 
Q 2609 313 2286 112 
Q 1963 -88 1566 -88 
Q 919 -88 538 428 
Q 216 863 216 1403 
Q 216 1797 411 2186 
Q 606 2575 925 2761 
Q 1244 2947 1600 2947 
z
M 1503 2744 
Q 1338 2744 1170 2645 
Q 1003 2547 900 2300 
Q 797 2053 797 1666 
Q 797 1041 1045 587 
Q 1294 134 1700 134 
Q 2003 134 2200 384 
Q 2397 634 2397 1244 
Q 2397 2006 2069 2444 
Q 1847 2744 1503 2744 
z
" transform="scale(0.015625)"/>
       <path id="TimesNewRomanPSMT-50" d="M 1050 2338 
Q 1363 2650 1419 2697 
Q 1559 2816 1721 2881 
Q 1884 2947 2044 2947 
Q 2313 2947 2506 2790 
Q 2700 2634 2766 2338 
Q 3088 2713 3309 2830 
Q 3531 2947 3766 2947 
Q 3994 2947 4170 2830 
Q 4347 2713 4450 2447 
Q 4519 2266 4519 1878 
L 4519 647 
Q 4519 378 4559 278 
Q 4591 209 4675 161 
Q 4759 113 4950 113 
L 4950 0 
L 3538 0 
L 3538 113 
L 3597 113 
Q 3781 113 3884 184 
Q 3956 234 3988 344 
Q 4000 397 4000 647 
L 4000 1878 
Q 4000 2228 3916 2372 
Q 3794 2572 3525 2572 
Q 3359 2572 3192 2489 
Q 3025 2406 2788 2181 
L 2781 2147 
L 2788 2013 
L 2788 647 
Q 2788 353 2820 281 
Q 2853 209 2943 161 
Q 3034 113 3253 113 
L 3253 0 
L 1806 0 
L 1806 113 
Q 2044 113 2133 169 
Q 2222 225 2256 338 
Q 2272 391 2272 647 
L 2272 1878 
Q 2272 2228 2169 2381 
Q 2031 2581 1784 2581 
Q 1616 2581 1450 2491 
Q 1191 2353 1050 2181 
L 1050 647 
Q 1050 366 1089 281 
Q 1128 197 1204 155 
Q 1281 113 1516 113 
L 1516 0 
L 100 0 
L 100 113 
Q 297 113 375 155 
Q 453 197 493 289 
Q 534 381 534 647 
L 534 1741 
Q 534 2213 506 2350 
Q 484 2453 437 2492 
Q 391 2531 309 2531 
Q 222 2531 100 2484 
L 53 2597 
L 916 2947 
L 1050 2947 
L 1050 2338 
z
" transform="scale(0.015625)"/>
       <path id="TimesNewRomanPSMT-5d" d="M 2688 878 
L 2653 0 
L 128 0 
L 128 113 
L 2028 2644 
L 1091 2644 
Q 788 2644 694 2605 
Q 600 2566 541 2456 
Q 456 2300 444 2069 
L 319 2069 
L 338 2863 
L 2738 2863 
L 2738 2747 
L 819 209 
L 1863 209 
Q 2191 209 2308 264 
Q 2425 319 2497 456 
Q 2547 556 2581 878 
L 2688 878 
z
" transform="scale(0.015625)"/>
      </defs>
      <use xlink:href="#TimesNewRomanPSMT-26"/>
      <use xlink:href="#TimesNewRomanPSMT-52" transform="translate(66.703125 0)"/>
      <use xlink:href="#TimesNewRomanPSMT-50" transform="translate(116.703125 0)"/>
      <use xlink:href="#TimesNewRomanPSMT-53" transform="translate(194.484375 0)"/>
      <use xlink:href="#TimesNewRomanPSMT-4f" transform="translate(244.484375 0)"/>
      <use xlink:href="#TimesNewRomanPSMT-48" transform="translate(272.265625 0)"/>
      <use xlink:href="#TimesNewRomanPSMT-57" transform="translate(316.65625 0)"/>
      <use xlink:href="#TimesNewRomanPSMT-48" transform="translate(344.4375 0)"/>
      <use xlink:href="#TimesNewRomanPSMT-47" transform="translate(388.828125 0)"/>
      <use xlink:href="#TimesNewRomanPSMT-3" transform="translate(438.828125 0)"/>
      <use xlink:href="#TimesNewRomanPSMT-52" transform="translate(463.828125 0)"/>
      <use xlink:href="#TimesNewRomanPSMT-53" transform="translate(513.828125 0)"/>
      <use xlink:href="#TimesNewRomanPSMT-57" transform="translate(563.828125 0)"/>
      <use xlink:href="#TimesNewRomanPSMT-4c" transform="translate(591.609375 0)"/>
      <use xlink:href="#TimesNewRomanPSMT-50" transform="translate(619.390625 0)"/>
      <use xlink:href="#TimesNewRomanPSMT-4c" transform="translate(697.171875 0)"/>
      <use xlink:href="#TimesNewRomanPSMT-5d" transform="translate(724.953125 0)"/>
      <use xlink:href="#TimesNewRomanPSMT-48" transform="translate(769.34375 0)"/>
      <use xlink:href="#TimesNewRomanPSMT-55" transform="translate(813.734375 0)"/>
      <use xlink:href="#TimesNewRomanPSMT-3" transform="translate(847.03125 0)"/>
      <use xlink:href="#TimesNewRomanPSMT-56" transform="translate(872.03125 0)"/>
      <use xlink:href="#TimesNewRomanPSMT-57" transform="translate(910.953125 0)"/>
      <use xlink:href="#TimesNewRomanPSMT-48" transform="translate(938.734375 0)"/>
      <use xlink:href="#TimesNewRomanPSMT-53" transform="translate(983.125 0)"/>
      <use xlink:href="#TimesNewRomanPSMT-56" transform="translate(1033.125 0)"/>
     </g>
    </g>
    <g id="text_38">
     <!-- 1e3 -->
     <g transform="translate(220.097656 278.420469) scale(0.07 -0.07)">
      <use xlink:href="#TimesNewRomanPSMT-14"/>
      <use xlink:href="#TimesNewRomanPSMT-48" transform="translate(50 0)"/>
      <use xlink:href="#TimesNewRomanPSMT-16" transform="translate(94.390625 0)"/>
     </g>
    </g>
   </g>
   <g id="matplotlib.axis_6">
    <g id="ytick_7">
     <g id="line2d_63">
      <path d="M 37.731563 251.189121 
L 230.205 251.189121 
" clip-path="url(#p1b5619448c)" style="fill: none; stroke: #b0b0b0; stroke-opacity: 0.2; stroke-width: 0.8; stroke-linecap: square"/>
     </g>
     <g id="line2d_64">
      <g>
       <use xlink:href="#me4b5cc51e1" x="37.731563" y="251.189121" style="stroke: #000000; stroke-width: 0.8"/>
      </g>
     </g>
     <g id="text_39">
      <!-- 17.5 -->
      <g transform="translate(18.481563 253.615879) scale(0.07 -0.07)">
       <use xlink:href="#TimesNewRomanPSMT-14"/>
       <use xlink:href="#TimesNewRomanPSMT-1a" transform="translate(50 0)"/>
       <use xlink:href="#TimesNewRomanPSMT-11" transform="translate(100 0)"/>
       <use xlink:href="#TimesNewRomanPSMT-18" transform="translate(125 0)"/>
      </g>
     </g>
    </g>
    <g id="ytick_8">
     <g id="line2d_65">
      <path d="M 37.731563 243.328824 
L 230.205 243.328824 
" clip-path="url(#p1b5619448c)" style="fill: none; stroke: #b0b0b0; stroke-opacity: 0.2; stroke-width: 0.8; stroke-linecap: square"/>
     </g>
     <g id="line2d_66">
      <g>
       <use xlink:href="#me4b5cc51e1" x="37.731563" y="243.328824" style="stroke: #000000; stroke-width: 0.8"/>
      </g>
     </g>
     <g id="text_40">
      <!-- 20.0 -->
      <g transform="translate(18.481563 245.755582) scale(0.07 -0.07)">
       <use xlink:href="#TimesNewRomanPSMT-15"/>
       <use xlink:href="#TimesNewRomanPSMT-13" transform="translate(50 0)"/>
       <use xlink:href="#TimesNewRomanPSMT-11" transform="translate(100 0)"/>
       <use xlink:href="#TimesNewRomanPSMT-13" transform="translate(125 0)"/>
      </g>
     </g>
    </g>
    <g id="ytick_9">
     <g id="line2d_67">
      <path d="M 37.731563 235.468528 
L 230.205 235.468528 
" clip-path="url(#p1b5619448c)" style="fill: none; stroke: #b0b0b0; stroke-opacity: 0.2; stroke-width: 0.8; stroke-linecap: square"/>
     </g>
     <g id="line2d_68">
      <g>
       <use xlink:href="#me4b5cc51e1" x="37.731563" y="235.468528" style="stroke: #000000; stroke-width: 0.8"/>
      </g>
     </g>
     <g id="text_41">
      <!-- 22.5 -->
      <g transform="translate(18.481563 237.895286) scale(0.07 -0.07)">
       <use xlink:href="#TimesNewRomanPSMT-15"/>
       <use xlink:href="#TimesNewRomanPSMT-15" transform="translate(50 0)"/>
       <use xlink:href="#TimesNewRomanPSMT-11" transform="translate(100 0)"/>
       <use xlink:href="#TimesNewRomanPSMT-18" transform="translate(125 0)"/>
      </g>
     </g>
    </g>
    <g id="text_42">
     <!-- PSNR (dB) -->
     <g transform="translate(12.755 261.268835) rotate(-90) scale(0.08 -0.08)">
      <use xlink:href="#TimesNewRomanPSMT-33"/>
      <use xlink:href="#TimesNewRomanPSMT-36" transform="translate(55.609375 0)"/>
      <use xlink:href="#TimesNewRomanPSMT-31" transform="translate(111.21875 0)"/>
      <use xlink:href="#TimesNewRomanPSMT-35" transform="translate(183.4375 0)"/>
      <use xlink:href="#TimesNewRomanPSMT-3" transform="translate(250.140625 0)"/>
      <use xlink:href="#TimesNewRomanPSMT-b" transform="translate(275.140625 0)"/>
      <use xlink:href="#TimesNewRomanPSMT-47" transform="translate(308.4375 0)"/>
      <use xlink:href="#TimesNewRomanPSMT-25" transform="translate(358.4375 0)"/>
      <use xlink:href="#TimesNewRomanPSMT-c" transform="translate(425.140625 0)"/>
     </g>
    </g>
   </g>
   <g id="line2d_69">
    <path d="M 46.480355 255.905299 
L 53.771016 253.437177 
L 61.061676 251.196992 
L 68.352337 249.163694 
L 75.642997 247.318176 
L 82.933658 245.643096 
L 90.224318 244.122715 
L 97.514979 242.742744 
L 104.805639 241.490217 
L 112.0963 240.353364 
L 119.38696 239.321503 
L 126.677621 238.384936 
L 133.968281 237.534864 
L 141.258942 236.763298 
L 148.549602 236.062988 
L 155.840263 235.427353 
L 163.130923 234.850421 
L 170.421584 234.326771 
L 177.712244 233.85148 
L 185.002905 233.420084 
L 192.293565 233.028528 
L 199.584226 232.673134 
L 206.874886 232.350561 
L 214.165547 232.057778 
L 221.456207 231.792035 
" clip-path="url(#p1b5619448c)" style="fill: none; stroke: #252525; stroke-width: 1.5; stroke-linecap: square"/>
   </g>
   <g id="line2d_70">
    <path d="M 46.480355 255.905299 
L 53.771016 252.881329 
L 61.061676 250.187861 
L 68.352337 247.788772 
L 75.642997 245.651889 
L 82.933658 243.748554 
L 90.224318 242.053242 
L 97.514979 240.543217 
L 104.805639 239.198229 
L 112.0963 238.00024 
L 119.38696 236.933184 
L 126.677621 235.98275 
L 133.968281 235.136193 
L 141.258942 234.382159 
L 148.549602 233.710537 
L 155.840263 233.112319 
L 163.130923 232.579482 
L 170.421584 232.104882 
L 177.712244 231.682152 
L 185.002905 231.305624 
L 192.293565 230.970248 
L 199.584226 230.671527 
L 206.874886 230.405454 
L 214.165547 230.168461 
L 221.456207 229.95737 
" clip-path="url(#p1b5619448c)" style="fill: none; stroke: #0057ff; stroke-width: 1.5; stroke-linecap: square"/>
   </g>
   <g id="patch_9">
    <path d="M 37.731563 257.202695 
L 37.731563 228.659974 
" style="fill: none; stroke: #000000; stroke-width: 0.8; stroke-linejoin: miter; stroke-linecap: square"/>
   </g>
   <g id="patch_10">
    <path d="M 37.731563 257.202695 
L 230.205 257.202695 
" style="fill: none; stroke: #000000; stroke-width: 0.8; stroke-linejoin: miter; stroke-linecap: square"/>
   </g>
   <g id="text_43">
    <!-- 60 updates / KF interval -->
    <g transform="translate(92.891367 222.659974) scale(0.085 -0.085)">
     <use xlink:href="#TimesNewRomanPSMT-19"/>
     <use xlink:href="#TimesNewRomanPSMT-13" transform="translate(50 0)"/>
     <use xlink:href="#TimesNewRomanPSMT-3" transform="translate(100 0)"/>
     <use xlink:href="#TimesNewRomanPSMT-58" transform="translate(125 0)"/>
     <use xlink:href="#TimesNewRomanPSMT-53" transform="translate(175 0)"/>
     <use xlink:href="#TimesNewRomanPSMT-47" transform="translate(225 0)"/>
     <use xlink:href="#TimesNewRomanPSMT-44" transform="translate(275 0)"/>
     <use xlink:href="#TimesNewRomanPSMT-57" transform="translate(319.390625 0)"/>
     <use xlink:href="#TimesNewRomanPSMT-48" transform="translate(347.171875 0)"/>
     <use xlink:href="#TimesNewRomanPSMT-56" transform="translate(391.5625 0)"/>
     <use xlink:href="#TimesNewRomanPSMT-3" transform="translate(430.484375 0)"/>
     <use xlink:href="#TimesNewRomanPSMT-12" transform="translate(455.484375 0)"/>
     <use xlink:href="#TimesNewRomanPSMT-3" transform="translate(483.265625 0)"/>
     <use xlink:href="#TimesNewRomanPSMT-2e" transform="translate(508.265625 0)"/>
     <use xlink:href="#TimesNewRomanPSMT-29" transform="translate(580.484375 0)"/>
     <use xlink:href="#TimesNewRomanPSMT-3" transform="translate(636.09375 0)"/>
     <use xlink:href="#TimesNewRomanPSMT-4c" transform="translate(661.09375 0)"/>
     <use xlink:href="#TimesNewRomanPSMT-51" transform="translate(688.875 0)"/>
     <use xlink:href="#TimesNewRomanPSMT-57" transform="translate(738.875 0)"/>
     <use xlink:href="#TimesNewRomanPSMT-48" transform="translate(766.65625 0)"/>
     <use xlink:href="#TimesNewRomanPSMT-55" transform="translate(811.046875 0)"/>
     <use xlink:href="#TimesNewRomanPSMT-59" transform="translate(844.34375 0)"/>
     <use xlink:href="#TimesNewRomanPSMT-44" transform="translate(894.34375 0)"/>
     <use xlink:href="#TimesNewRomanPSMT-4f" transform="translate(938.734375 0)"/>
    </g>
   </g>
  </g>
  <g id="text_44">
   <!-- DRAFT - DUMMY DATA -->
   <g style="fill: #a5382d" transform="translate(73.398125 13.217578) scale(0.08 -0.08)">
    <defs>
     <path id="TimesNewRomanPS-BoldMT-27" d="M 84 0 
L 84 116 
L 225 116 
Q 409 116 507 173 
Q 606 231 653 331 
Q 681 397 681 725 
L 681 3513 
Q 681 3838 647 3919 
Q 613 4000 508 4061 
Q 403 4122 225 4122 
L 84 4122 
L 84 4238 
L 1981 4238 
Q 2741 4238 3203 4031 
Q 3769 3778 4061 3265 
Q 4353 2753 4353 2106 
Q 4353 1659 4209 1282 
Q 4066 906 3837 661 
Q 3609 416 3311 267 
Q 3013 119 2581 38 
Q 2391 0 1981 0 
L 84 0 
z
M 1700 3997 
L 1700 691 
Q 1700 428 1725 368 
Q 1750 309 1809 278 
Q 1894 231 2053 231 
Q 2575 231 2850 588 
Q 3225 1069 3225 2081 
Q 3225 2897 2969 3384 
Q 2766 3766 2447 3903 
Q 2222 4000 1700 3997 
z
" transform="scale(0.015625)"/>
     <path id="TimesNewRomanPS-BoldMT-35" d="M 1700 1931 
L 1700 744 
Q 1700 400 1742 311 
Q 1784 222 1890 169 
Q 1997 116 2288 116 
L 2288 0 
L 119 0 
L 119 116 
Q 413 116 517 170 
Q 622 225 664 312 
Q 706 400 706 744 
L 706 3494 
Q 706 3838 664 3927 
Q 622 4016 515 4069 
Q 409 4122 119 4122 
L 119 4238 
L 2088 4238 
Q 2856 4238 3212 4131 
Q 3569 4025 3794 3739 
Q 4019 3453 4019 3069 
Q 4019 2600 3681 2294 
Q 3466 2100 3078 2003 
L 4097 569 
Q 4297 291 4381 222 
Q 4509 125 4678 116 
L 4678 0 
L 3344 0 
L 1978 1931 
L 1700 1931 
z
M 1700 4009 
L 1700 2153 
L 1878 2153 
Q 2313 2153 2528 2233 
Q 2744 2313 2867 2520 
Q 2991 2728 2991 3063 
Q 2991 3547 2764 3778 
Q 2538 4009 2034 4009 
L 1700 4009 
z
" transform="scale(0.015625)"/>
     <path id="TimesNewRomanPS-BoldMT-24" d="M 2663 1206 
L 1166 1206 
L 988 794 
Q 900 588 900 453 
Q 900 275 1044 191 
Q 1128 141 1459 116 
L 1459 0 
L 50 0 
L 50 116 
Q 278 150 425 304 
Q 572 459 788 944 
L 2303 4325 
L 2363 4325 
L 3891 850 
Q 4109 356 4250 228 
Q 4356 131 4550 116 
L 4550 0 
L 2500 0 
L 2500 116 
L 2584 116 
Q 2831 116 2931 184 
Q 3000 234 3000 328 
Q 3000 384 2981 444 
Q 2975 472 2888 678 
L 2663 1206 
z
M 2556 1438 
L 1925 2897 
L 1275 1438 
L 2556 1438 
z
" transform="scale(0.015625)"/>
     <path id="TimesNewRomanPS-BoldMT-29" d="M 1759 3994 
L 1759 2253 
L 1881 2253 
Q 2163 2253 2341 2337 
Q 2519 2422 2642 2622 
Q 2766 2822 2803 3163 
L 2913 3163 
L 2913 1034 
L 2803 1034 
Q 2744 1638 2480 1830 
Q 2216 2022 1881 2022 
L 1759 2022 
L 1759 725 
Q 1759 400 1795 319 
Q 1831 238 1936 177 
Q 2041 116 2219 116 
L 2359 116 
L 2359 0 
L 144 0 
L 144 116 
L 284 116 
Q 469 116 581 181 
Q 663 225 706 331 
Q 741 406 741 725 
L 741 3513 
Q 741 3838 706 3919 
Q 672 4000 567 4061 
Q 463 4122 284 4122 
L 144 4122 
L 144 4238 
L 3719 4238 
L 3719 3022 
L 3591 3022 
Q 3547 3450 3367 3656 
Q 3188 3863 2847 3947 
Q 2659 3994 2153 3994 
L 1759 3994 
z
" transform="scale(0.015625)"/>
     <path id="TimesNewRomanPS-BoldMT-37" d="M 4038 4238 
L 4038 3091 
L 3925 3091 
Q 3825 3488 3703 3661 
Q 3581 3834 3369 3938 
Q 3250 3994 2953 3994 
L 2638 3994 
L 2638 725 
Q 2638 400 2673 319 
Q 2709 238 2814 177 
Q 2919 116 3100 116 
L 3241 116 
L 3241 0 
L 1022 0 
L 1022 116 
L 1163 116 
Q 1347 116 1459 181 
Q 1541 225 1588 331 
Q 1622 406 1622 725 
L 1622 3994 
L 1316 3994 
Q 888 3994 694 3813 
Q 422 3559 350 3091 
L 231 3091 
L 231 4238 
L 4038 4238 
z
" transform="scale(0.015625)"/>
     <path id="TimesNewRomanPS-BoldMT-3" transform="scale(0.015625)"/>
     <path id="TimesNewRomanPS-BoldMT-10" d="M 1978 1147 
L 156 1147 
L 156 1794 
L 1978 1794 
L 1978 1147 
z
" transform="scale(0.015625)"/>
     <path id="TimesNewRomanPS-BoldMT-38" d="M 150 4238 
L 2338 4238 
L 2338 4122 
L 2228 4122 
Q 1981 4122 1889 4070 
Q 1797 4019 1758 3928 
Q 1719 3838 1719 3475 
L 1719 1400 
Q 1719 831 1805 647 
Q 1891 463 2087 341 
Q 2284 219 2584 219 
Q 2928 219 3170 373 
Q 3413 528 3533 800 
Q 3653 1072 3653 1747 
L 3653 3475 
Q 3653 3759 3593 3881 
Q 3534 4003 3444 4050 
Q 3303 4122 3047 4122 
L 3047 4238 
L 4513 4238 
L 4513 4122 
L 4425 4122 
Q 4247 4122 4128 4050 
Q 4009 3978 3956 3834 
Q 3916 3734 3916 3475 
L 3916 1866 
Q 3916 1119 3817 787 
Q 3719 456 3337 178 
Q 2956 -100 2297 -100 
Q 1747 -100 1447 47 
Q 1038 247 869 559 
Q 700 872 700 1400 
L 700 3475 
Q 700 3841 659 3930 
Q 619 4019 519 4072 
Q 419 4125 150 4122 
L 150 4238 
z
" transform="scale(0.015625)"/>
     <path id="TimesNewRomanPS-BoldMT-30" d="M 3050 1444 
L 4200 4238 
L 5925 4238 
L 5925 4122 
L 5788 4122 
Q 5600 4122 5488 4056 
Q 5409 4013 5363 3909 
Q 5328 3834 5328 3519 
L 5328 725 
Q 5328 400 5362 319 
Q 5397 238 5503 177 
Q 5609 116 5788 116 
L 5925 116 
L 5925 0 
L 3713 0 
L 3713 116 
L 3850 116 
Q 4038 116 4150 181 
Q 4228 225 4275 331 
Q 4309 406 4309 725 
L 4309 3866 
L 2684 0 
L 2609 0 
L 959 3838 
L 959 853 
Q 959 541 975 469 
Q 1016 313 1152 214 
Q 1288 116 1578 116 
L 1578 0 
L 128 0 
L 128 116 
L 172 116 
Q 313 113 434 161 
Q 556 209 618 290 
Q 681 372 716 519 
Q 722 553 722 838 
L 722 3519 
Q 722 3841 687 3920 
Q 653 4000 547 4061 
Q 441 4122 263 4122 
L 128 4122 
L 128 4238 
L 1859 4238 
L 3050 1444 
z
" transform="scale(0.015625)"/>
     <path id="TimesNewRomanPS-BoldMT-3c" d="M 4550 4238 
L 4550 4122 
Q 4341 4094 4228 4000 
Q 4072 3869 3734 3284 
L 2816 1750 
L 2816 725 
Q 2816 397 2850 317 
Q 2884 238 2986 177 
Q 3088 116 3256 116 
L 3494 116 
L 3494 0 
L 1116 0 
L 1116 116 
L 1338 116 
Q 1525 116 1634 181 
Q 1716 225 1763 331 
Q 1797 406 1797 725 
L 1797 1575 
L 800 3391 
Q 503 3928 381 4023 
Q 259 4119 56 4122 
L 56 4238 
L 2088 4238 
L 2088 4122 
L 1997 4122 
Q 1813 4122 1739 4069 
Q 1666 4016 1666 3956 
Q 1666 3844 1916 3391 
L 2681 1988 
L 3444 3266 
Q 3728 3734 3728 3888 
Q 3728 3972 3647 4028 
Q 3541 4106 3256 4122 
L 3256 4238 
L 4550 4238 
z
" transform="scale(0.015625)"/>
    </defs>
    <use xlink:href="#TimesNewRomanPS-BoldMT-27"/>
    <use xlink:href="#TimesNewRomanPS-BoldMT-35" transform="translate(72.21875 0)"/>
    <use xlink:href="#TimesNewRomanPS-BoldMT-24" transform="translate(144.4375 0)"/>
    <use xlink:href="#TimesNewRomanPS-BoldMT-29" transform="translate(216.65625 0)"/>
    <use xlink:href="#TimesNewRomanPS-BoldMT-37" transform="translate(277.734375 0)"/>
    <use xlink:href="#TimesNewRomanPS-BoldMT-3" transform="translate(342.625 0)"/>
    <use xlink:href="#TimesNewRomanPS-BoldMT-10" transform="translate(367.625 0)"/>
    <use xlink:href="#TimesNewRomanPS-BoldMT-3" transform="translate(400.921875 0)"/>
    <use xlink:href="#TimesNewRomanPS-BoldMT-27" transform="translate(425.921875 0)"/>
    <use xlink:href="#TimesNewRomanPS-BoldMT-38" transform="translate(498.140625 0)"/>
    <use xlink:href="#TimesNewRomanPS-BoldMT-30" transform="translate(570.359375 0)"/>
    <use xlink:href="#TimesNewRomanPS-BoldMT-30" transform="translate(664.75 0)"/>
    <use xlink:href="#TimesNewRomanPS-BoldMT-3c" transform="translate(759.140625 0)"/>
    <use xlink:href="#TimesNewRomanPS-BoldMT-3" transform="translate(827.65625 0)"/>
    <use xlink:href="#TimesNewRomanPS-BoldMT-27" transform="translate(852.65625 0)"/>
    <use xlink:href="#TimesNewRomanPS-BoldMT-24" transform="translate(924.875 0)"/>
    <use xlink:href="#TimesNewRomanPS-BoldMT-37" transform="translate(989.671875 0)"/>
    <use xlink:href="#TimesNewRomanPS-BoldMT-24" transform="translate(1048.953125 0)"/>
   </g>
   <!-- Not experimental results -->
   <g style="fill: #a5382d" transform="translate(76.326875 21.565859) scale(0.08 -0.08)">
    <defs>
     <path id="TimesNewRomanPS-BoldMT-31" d="M 1594 4238 
L 3684 1609 
L 3684 3431 
Q 3684 3813 3575 3947 
Q 3425 4128 3072 4122 
L 3072 4238 
L 4472 4238 
L 4472 4122 
Q 4203 4088 4111 4033 
Q 4019 3978 3967 3854 
Q 3916 3731 3916 3431 
L 3916 -97 
L 3809 -97 
L 944 3431 
L 944 738 
Q 944 372 1111 244 
Q 1278 116 1494 116 
L 1594 116 
L 1594 0 
L 91 0 
L 91 116 
Q 441 119 578 259 
Q 716 400 716 738 
L 716 3728 
L 625 3841 
Q 491 4009 387 4062 
Q 284 4116 91 4122 
L 91 4238 
L 1594 4238 
z
" transform="scale(0.015625)"/>
     <path id="TimesNewRomanPS-BoldMT-52" d="M 1594 3009 
Q 1975 3009 2303 2812 
Q 2631 2616 2801 2253 
Q 2972 1891 2972 1459 
Q 2972 838 2656 419 
Q 2275 -88 1603 -88 
Q 944 -88 587 375 
Q 231 838 231 1447 
Q 231 2075 595 2542 
Q 959 3009 1594 3009 
z
M 1606 2788 
Q 1447 2788 1333 2667 
Q 1219 2547 1183 2192 
Q 1147 1838 1147 1206 
Q 1147 872 1191 581 
Q 1225 359 1337 243 
Q 1450 128 1594 128 
Q 1734 128 1828 206 
Q 1950 313 1991 503 
Q 2053 800 2053 1703 
Q 2053 2234 1993 2432 
Q 1934 2631 1819 2722 
Q 1738 2788 1606 2788 
z
" transform="scale(0.015625)"/>
     <path id="TimesNewRomanPS-BoldMT-57" d="M 1375 3991 
L 1375 2922 
L 2069 2922 
L 2069 2613 
L 1375 2613 
L 1375 809 
Q 1375 556 1398 482 
Q 1422 409 1481 364 
Q 1541 319 1591 319 
Q 1794 319 1975 628 
L 2069 559 
Q 1816 -41 1247 -41 
Q 969 -41 776 114 
Q 584 269 531 459 
Q 500 566 500 1034 
L 500 2613 
L 119 2613 
L 119 2722 
Q 513 3000 789 3306 
Q 1066 3613 1272 3991 
L 1375 3991 
z
" transform="scale(0.015625)"/>
     <path id="TimesNewRomanPS-BoldMT-48" d="M 2691 1566 
L 1088 1566 
Q 1116 984 1397 647 
Q 1613 388 1916 388 
Q 2103 388 2256 492 
Q 2409 597 2584 869 
L 2691 800 
Q 2453 316 2165 114 
Q 1878 -88 1500 -88 
Q 850 -88 516 413 
Q 247 816 247 1413 
Q 247 2144 642 2576 
Q 1038 3009 1569 3009 
Q 2013 3009 2339 2645 
Q 2666 2281 2691 1566 
z
M 1922 1775 
Q 1922 2278 1867 2465 
Q 1813 2653 1697 2750 
Q 1631 2806 1522 2806 
Q 1359 2806 1256 2647 
Q 1072 2369 1072 1884 
L 1072 1775 
L 1922 1775 
z
" transform="scale(0.015625)"/>
     <path id="TimesNewRomanPS-BoldMT-5b" d="M 1944 1791 
L 2450 828 
Q 2713 325 2866 191 
Q 2950 119 3097 113 
L 3097 0 
L 1469 0 
L 1469 113 
Q 1659 128 1704 162 
Q 1750 197 1750 256 
Q 1750 344 1650 531 
L 1397 1006 
L 1181 691 
Q 1034 475 1016 434 
Q 991 375 991 328 
Q 991 256 1020 207 
Q 1050 159 1101 136 
Q 1153 113 1291 113 
L 1291 0 
L 147 0 
L 147 113 
Q 359 113 536 230 
Q 713 347 1050 844 
L 1291 1200 
L 788 2131 
Q 541 2588 419 2691 
Q 297 2794 147 2806 
L 147 2922 
L 1766 2922 
L 1766 2806 
L 1681 2803 
L 1519 2747 
Q 1494 2725 1494 2675 
Q 1494 2628 1509 2578 
Q 1519 2556 1597 2409 
L 1825 1984 
L 1944 2153 
Q 2194 2497 2194 2634 
Q 2194 2700 2139 2745 
Q 2084 2791 1944 2806 
L 1944 2922 
L 2978 2922 
L 2978 2806 
Q 2788 2800 2622 2689 
Q 2456 2578 2250 2259 
L 1944 1791 
z
" transform="scale(0.015625)"/>
     <path id="TimesNewRomanPS-BoldMT-53" d="M 1347 297 
L 1347 -791 
Q 1347 -1016 1383 -1097 
Q 1419 -1178 1494 -1215 
Q 1569 -1253 1788 -1253 
L 1788 -1369 
L 122 -1369 
L 122 -1253 
Q 316 -1247 409 -1144 
Q 472 -1072 472 -772 
L 472 2313 
Q 472 2622 400 2708 
Q 328 2794 122 2806 
L 122 2922 
L 1347 2922 
L 1347 2538 
Q 1500 2763 1659 2863 
Q 1888 3009 2156 3009 
Q 2478 3009 2742 2806 
Q 3006 2603 3143 2245 
Q 3281 1888 3281 1475 
Q 3281 1031 3139 664 
Q 2997 297 2726 104 
Q 2456 -88 2125 -88 
Q 1884 -88 1675 19 
Q 1519 100 1347 297 
z
M 1347 613 
Q 1616 231 1922 231 
Q 2091 231 2200 409 
Q 2363 672 2363 1409 
Q 2363 2166 2184 2444 
Q 2066 2628 1866 2628 
Q 1550 2628 1347 2172 
L 1347 613 
z
" transform="scale(0.015625)"/>
     <path id="TimesNewRomanPS-BoldMT-55" d="M 1428 2922 
L 1428 2259 
Q 1719 2713 1937 2861 
Q 2156 3009 2359 3009 
Q 2534 3009 2639 2901 
Q 2744 2794 2744 2597 
Q 2744 2388 2642 2272 
Q 2541 2156 2397 2156 
Q 2231 2156 2109 2262 
Q 1988 2369 1966 2381 
Q 1934 2400 1894 2400 
Q 1803 2400 1722 2331 
Q 1594 2225 1528 2028 
Q 1428 1725 1428 1359 
L 1428 688 
L 1431 513 
Q 1431 334 1453 284 
Q 1491 200 1564 161 
Q 1638 122 1813 113 
L 1813 0 
L 234 0 
L 234 113 
Q 425 128 492 217 
Q 559 306 559 688 
L 559 2303 
Q 559 2553 534 2622 
Q 503 2709 443 2750 
Q 384 2791 234 2806 
L 234 2922 
L 1428 2922 
z
" transform="scale(0.015625)"/>
     <path id="TimesNewRomanPS-BoldMT-4c" d="M 919 4338 
Q 1122 4338 1262 4195 
Q 1403 4053 1403 3853 
Q 1403 3653 1261 3512 
Q 1119 3372 919 3372 
Q 719 3372 578 3512 
Q 438 3653 438 3853 
Q 438 4053 578 4195 
Q 719 4338 919 4338 
z
M 1356 2922 
L 1356 606 
Q 1356 297 1428 211 
Q 1500 125 1709 113 
L 1709 0 
L 131 0 
L 131 113 
Q 325 119 419 225 
Q 481 297 481 606 
L 481 2313 
Q 481 2622 409 2708 
Q 338 2794 131 2806 
L 131 2922 
L 1356 2922 
z
" transform="scale(0.015625)"/>
     <path id="TimesNewRomanPS-BoldMT-50" d="M 1428 2922 
L 1428 2538 
Q 1669 2800 1873 2904 
Q 2078 3009 2322 3009 
Q 2603 3009 2793 2878 
Q 2984 2747 3088 2478 
Q 3338 2759 3567 2884 
Q 3797 3009 4047 3009 
Q 4350 3009 4529 2870 
Q 4709 2731 4779 2517 
Q 4850 2303 4850 1834 
L 4850 638 
Q 4850 300 4911 219 
Q 4972 138 5166 113 
L 5166 0 
L 3656 0 
L 3656 113 
Q 3834 128 3919 250 
Q 3975 334 3975 638 
L 3975 1894 
Q 3975 2284 3944 2390 
Q 3913 2497 3845 2548 
Q 3778 2600 3688 2600 
Q 3553 2600 3415 2501 
Q 3278 2403 3138 2206 
L 3138 638 
Q 3138 322 3191 241 
Q 3263 125 3466 113 
L 3466 0 
L 1953 0 
L 1953 113 
Q 2075 119 2145 173 
Q 2216 228 2239 304 
Q 2263 381 2263 638 
L 2263 1894 
Q 2263 2291 2231 2391 
Q 2200 2491 2126 2547 
Q 2053 2603 1969 2603 
Q 1844 2603 1741 2538 
Q 1594 2441 1428 2206 
L 1428 638 
Q 1428 328 1489 229 
Q 1550 131 1744 113 
L 1744 0 
L 238 0 
L 238 113 
Q 422 131 500 231 
Q 553 300 553 638 
L 553 2288 
Q 553 2619 492 2700 
Q 431 2781 238 2806 
L 238 2922 
L 1428 2922 
z
" transform="scale(0.015625)"/>
     <path id="TimesNewRomanPS-BoldMT-51" d="M 1409 2922 
L 1409 2544 
Q 1634 2788 1840 2898 
Q 2047 3009 2284 3009 
Q 2569 3009 2756 2851 
Q 2944 2694 3006 2459 
Q 3056 2281 3056 1775 
L 3056 638 
Q 3056 300 3117 217 
Q 3178 134 3372 113 
L 3372 0 
L 1894 0 
L 1894 113 
Q 2059 134 2131 250 
Q 2181 328 2181 638 
L 2181 1938 
Q 2181 2297 2153 2390 
Q 2125 2484 2058 2536 
Q 1991 2588 1909 2588 
Q 1641 2588 1409 2203 
L 1409 638 
Q 1409 309 1470 221 
Q 1531 134 1697 113 
L 1697 0 
L 219 0 
L 219 113 
Q 403 131 481 231 
Q 534 300 534 638 
L 534 2288 
Q 534 2619 473 2700 
Q 413 2781 219 2806 
L 219 2922 
L 1409 2922 
z
" transform="scale(0.015625)"/>
     <path id="TimesNewRomanPS-BoldMT-44" d="M 1828 431 
Q 1294 -41 869 -41 
Q 619 -41 453 123 
Q 288 288 288 534 
Q 288 869 575 1136 
Q 863 1403 1828 1847 
L 1828 2141 
Q 1828 2472 1792 2558 
Q 1756 2644 1656 2708 
Q 1556 2772 1431 2772 
Q 1228 2772 1097 2681 
Q 1016 2625 1016 2550 
Q 1016 2484 1103 2388 
Q 1222 2253 1222 2128 
Q 1222 1975 1108 1867 
Q 994 1759 809 1759 
Q 613 1759 480 1878 
Q 347 1997 347 2156 
Q 347 2381 525 2586 
Q 703 2791 1022 2900 
Q 1341 3009 1684 3009 
Q 2100 3009 2342 2832 
Q 2584 2656 2656 2450 
Q 2700 2319 2700 1847 
L 2700 713 
Q 2700 513 2715 461 
Q 2731 409 2762 384 
Q 2794 359 2834 359 
Q 2916 359 3000 475 
L 3094 400 
Q 2938 169 2770 64 
Q 2603 -41 2391 -41 
Q 2141 -41 2000 76 
Q 1859 194 1828 431 
z
M 1828 659 
L 1828 1638 
Q 1450 1416 1266 1163 
Q 1144 994 1144 822 
Q 1144 678 1247 569 
Q 1325 484 1466 484 
Q 1622 484 1828 659 
z
" transform="scale(0.015625)"/>
     <path id="TimesNewRomanPS-BoldMT-4f" d="M 1359 4238 
L 1359 606 
Q 1359 297 1431 211 
Q 1503 125 1713 113 
L 1713 0 
L 134 0 
L 134 113 
Q 328 119 422 225 
Q 484 297 484 606 
L 484 3631 
Q 484 3938 412 4023 
Q 341 4109 134 4122 
L 134 4238 
L 1359 4238 
z
" transform="scale(0.015625)"/>
     <path id="TimesNewRomanPS-BoldMT-56" d="M 2063 3003 
L 2109 2006 
L 2003 2006 
Q 1813 2450 1608 2612 
Q 1403 2775 1200 2775 
Q 1072 2775 981 2689 
Q 891 2603 891 2491 
Q 891 2406 953 2328 
Q 1053 2200 1512 1889 
Q 1972 1578 2117 1361 
Q 2263 1144 2263 875 
Q 2263 631 2141 397 
Q 2019 163 1797 37 
Q 1575 -88 1306 -88 
Q 1097 -88 747 44 
Q 653 78 619 78 
Q 516 78 447 -78 
L 344 -78 
L 294 972 
L 400 972 
Q 541 559 786 353 
Q 1031 147 1250 147 
Q 1400 147 1495 239 
Q 1591 331 1591 463 
Q 1591 613 1497 722 
Q 1403 831 1078 1053 
Q 600 1384 459 1559 
Q 253 1816 253 2125 
Q 253 2463 486 2736 
Q 719 3009 1159 3009 
Q 1397 3009 1619 2894 
Q 1703 2847 1756 2847 
Q 1813 2847 1847 2870 
Q 1881 2894 1956 3003 
L 2063 3003 
z
" transform="scale(0.015625)"/>
     <path id="TimesNewRomanPS-BoldMT-58" d="M 3038 2922 
L 3038 634 
Q 3038 300 3100 217 
Q 3163 134 3353 113 
L 3353 0 
L 2163 0 
L 2163 391 
Q 1953 141 1743 26 
Q 1534 -88 1275 -88 
Q 1028 -88 836 64 
Q 644 216 578 419 
Q 513 622 513 1128 
L 513 2288 
Q 513 2619 452 2700 
Q 391 2781 197 2806 
L 197 2922 
L 1388 2922 
L 1388 925 
Q 1388 613 1417 522 
Q 1447 431 1511 384 
Q 1575 338 1659 338 
Q 1772 338 1863 397 
Q 1988 478 2163 725 
L 2163 2288 
Q 2163 2619 2102 2700 
Q 2041 2781 1847 2806 
L 1847 2922 
L 3038 2922 
z
" transform="scale(0.015625)"/>
    </defs>
    <use xlink:href="#TimesNewRomanPS-BoldMT-31"/>
    <use xlink:href="#TimesNewRomanPS-BoldMT-52" transform="translate(72.21875 0)"/>
    <use xlink:href="#TimesNewRomanPS-BoldMT-57" transform="translate(122.21875 0)"/>
    <use xlink:href="#TimesNewRomanPS-BoldMT-3" transform="translate(155.515625 0)"/>
    <use xlink:href="#TimesNewRomanPS-BoldMT-48" transform="translate(180.515625 0)"/>
    <use xlink:href="#TimesNewRomanPS-BoldMT-5b" transform="translate(224.90625 0)"/>
    <use xlink:href="#TimesNewRomanPS-BoldMT-53" transform="translate(274.90625 0)"/>
    <use xlink:href="#TimesNewRomanPS-BoldMT-48" transform="translate(330.515625 0)"/>
    <use xlink:href="#TimesNewRomanPS-BoldMT-55" transform="translate(374.90625 0)"/>
    <use xlink:href="#TimesNewRomanPS-BoldMT-4c" transform="translate(419.296875 0)"/>
    <use xlink:href="#TimesNewRomanPS-BoldMT-50" transform="translate(447.078125 0)"/>
    <use xlink:href="#TimesNewRomanPS-BoldMT-48" transform="translate(530.375 0)"/>
    <use xlink:href="#TimesNewRomanPS-BoldMT-51" transform="translate(574.765625 0)"/>
    <use xlink:href="#TimesNewRomanPS-BoldMT-57" transform="translate(630.375 0)"/>
    <use xlink:href="#TimesNewRomanPS-BoldMT-44" transform="translate(663.671875 0)"/>
    <use xlink:href="#TimesNewRomanPS-BoldMT-4f" transform="translate(713.671875 0)"/>
    <use xlink:href="#TimesNewRomanPS-BoldMT-3" transform="translate(741.453125 0)"/>
    <use xlink:href="#TimesNewRomanPS-BoldMT-55" transform="translate(766.453125 0)"/>
    <use xlink:href="#TimesNewRomanPS-BoldMT-48" transform="translate(809.03125 0)"/>
    <use xlink:href="#TimesNewRomanPS-BoldMT-56" transform="translate(853.421875 0)"/>
    <use xlink:href="#TimesNewRomanPS-BoldMT-58" transform="translate(892.34375 0)"/>
    <use xlink:href="#TimesNewRomanPS-BoldMT-4f" transform="translate(947.953125 0)"/>
    <use xlink:href="#TimesNewRomanPS-BoldMT-57" transform="translate(975.734375 0)"/>
    <use xlink:href="#TimesNewRomanPS-BoldMT-56" transform="translate(1009.03125 0)"/>
   </g>
  </g>
 </g>
 <defs>
  <clipPath id="pc5a63b2239">
   <rect x="37.731563" y="83.131563" width="192.473437" height="28.542721"/>
  </clipPath>
  <clipPath id="p922cc968ad">
   <rect x="37.731563" y="155.895768" width="192.473437" height="28.542721"/>
  </clipPath>
  <clipPath id="p1b5619448c">
   <rect x="37.731563" y="228.659974" width="192.473437" height="28.542721"/>
  </clipPath>
 </defs>
</svg>
